<svg xmlns="http://www.w3.org/2000/svg" width="1145" height="791" fill="none" viewBox="0 0 1145 791"><g clip-path="url(#a)"><path fill="#ebebeb" d="M955.378 790.916v-35.319h189.792V43.88H954.664V0H0v243.304l955.378 1.784v309.105H.321v236.723z"/><path fill="#fff" stroke="gray" d="M42.436 1.243h82v77.643h-82z"/><path fill="#c8a755" d="M70.124 1.997h26.625v29.175H70.124z"/><path stroke="#fff" d="m83.41 2-.049 7.454M96.749 9.951H70.123"/><path fill="#000" d="M69.47 61.52v-1.15l4.32-4.73q.761-.832 1.254-1.446a5.4 5.4 0 0 0 .728-1.163q.243-.55.243-1.15 0-.691-.332-1.196a2.15 2.15 0 0 0-.895-.78 2.9 2.9 0 0 0-1.278-.274q-.754 0-1.317.313-.557.306-.863.863-.3.555-.3 1.304h-1.51q0-1.15.531-2.02a3.7 3.7 0 0 1 1.445-1.355q.92-.486 2.065-.486 1.15 0 2.039.486.888.485 1.393 1.31t.505 1.835q0 .722-.262 1.412-.256.684-.895 1.528-.633.837-1.758 2.045l-2.94 3.145v.103h6.085v1.406zm15.168.179q-1.444 0-2.46-.786-1.017-.794-1.554-2.295-.537-1.509-.537-3.644 0-2.121.537-3.624.543-1.509 1.56-2.301 1.022-.8 2.454-.8t2.448.8q1.023.792 1.56 2.301.543 1.503.543 3.624 0 2.135-.537 3.644-.537 1.501-1.553 2.295-1.017.786-2.46.786m0-1.407q1.432 0 2.224-1.38t.793-3.938q0-1.7-.364-2.895-.358-1.195-1.036-1.822a2.29 2.29 0 0 0-1.617-.626q-1.419 0-2.218 1.4-.8 1.392-.799 3.943 0 1.7.358 2.89.358 1.188 1.03 1.809.675.62 1.63.62M96.22 48.43v13.09h-1.585V50.092h-.077l-3.196 2.122v-1.61l3.273-2.174z"/><path fill="#fff" stroke="gray" d="M125.436 1.243h82v77.643h-82z"/><path fill="#c8a755" d="M153.124 1.997h26.625v29.175h-26.625z"/><path stroke="#fff" d="m166.41 2-.049 7.454M179.749 9.951h-26.626"/><path fill="#000" d="M151.178 61.52v-1.15l4.321-4.73q.76-.832 1.253-1.446.492-.619.729-1.163a2.8 2.8 0 0 0 .242-1.15q0-.691-.332-1.196a2.16 2.16 0 0 0-.895-.78 2.9 2.9 0 0 0-1.278-.274q-.754 0-1.317.313a2.16 2.16 0 0 0-.863.863q-.3.555-.3 1.304h-1.509q0-1.15.531-2.02a3.7 3.7 0 0 1 1.444-1.355q.92-.486 2.065-.486 1.15 0 2.039.486a3.65 3.65 0 0 1 1.393 1.31 3.44 3.44 0 0 1 .505 1.835q0 .722-.262 1.412-.255.684-.895 1.528-.632.837-1.757 2.045l-2.941 3.145v.103h6.086v1.406zm15.168.179q-1.444 0-2.461-.786-1.016-.794-1.553-2.295-.537-1.509-.537-3.644 0-2.121.537-3.624.543-1.509 1.56-2.301 1.023-.8 2.454-.8 1.433 0 2.448.8 1.023.792 1.56 2.301.543 1.503.543 3.624 0 2.135-.536 3.644-.537 1.501-1.554 2.295-1.016.786-2.461.786m0-1.407q1.432 0 2.225-1.38.792-1.38.792-3.938 0-1.7-.364-2.895-.359-1.195-1.035-1.822a2.3 2.3 0 0 0-1.618-.626q-1.419 0-2.218 1.4-.798 1.392-.799 3.943 0 1.7.358 2.89.358 1.188 1.029 1.809.678.62 1.63.62m6.98 1.228v-1.15l4.321-4.73q.762-.832 1.253-1.446.492-.619.729-1.163.243-.55.243-1.15 0-.691-.333-1.196a2.15 2.15 0 0 0-.894-.78 2.9 2.9 0 0 0-1.279-.274q-.754 0-1.317.313-.555.306-.862.863-.301.555-.301 1.304h-1.508q0-1.15.53-2.02a3.7 3.7 0 0 1 1.445-1.355q.92-.486 2.064-.486 1.15 0 2.039.486.889.485 1.394 1.31a3.44 3.44 0 0 1 .505 1.835q0 .722-.262 1.412-.256.684-.895 1.528-.633.837-1.758 2.045l-2.94 3.145v.103h6.085v1.406z"/><path fill="#fff" stroke="gray" d="M291.436 1.243h82v77.643h-82z"/><path fill="#c8a755" d="M319.124 1.997h26.625v29.175h-26.625z"/><path stroke="#fff" d="m332.41 2-.049 7.454M345.749 9.951h-26.626"/><path fill="#000" d="M316.912 61.52v-1.15l4.321-4.73q.76-.832 1.252-1.446.492-.619.729-1.163.243-.55.243-1.15 0-.691-.332-1.196a2.16 2.16 0 0 0-.895-.78 2.9 2.9 0 0 0-1.279-.274q-.754 0-1.316.313a2.15 2.15 0 0 0-.863.863q-.301.555-.301 1.304h-1.508q0-1.15.53-2.02a3.7 3.7 0 0 1 1.445-1.355q.92-.486 2.064-.486 1.15 0 2.039.486.889.485 1.394 1.31a3.44 3.44 0 0 1 .505 1.835q0 .722-.262 1.412-.256.684-.895 1.528-.633.837-1.758 2.045l-2.94 3.145v.103h6.085v1.406zm15.168.179q-1.445 0-2.461-.786-1.016-.794-1.553-2.295-.537-1.509-.537-3.644 0-2.121.537-3.624.543-1.509 1.559-2.301 1.023-.8 2.455-.8 1.431 0 2.448.8 1.023.792 1.56 2.301.543 1.503.543 3.624 0 2.135-.537 3.644-.537 1.501-1.553 2.295-1.017.786-2.461.786m0-1.407q1.431 0 2.224-1.38t.793-3.938q0-1.7-.364-2.895-.358-1.195-1.036-1.822a2.28 2.28 0 0 0-1.617-.626q-1.42 0-2.218 1.4-.8 1.392-.799 3.943 0 1.7.358 2.89.357 1.188 1.029 1.809.678.62 1.63.62m6.673-1.457v-1.304l5.753-9.102h.946v2.02h-.639l-4.347 6.878v.102h7.747v1.406zm6.162 2.685V48.429h1.509v13.09z"/><path fill="#fff" stroke="gray" d="M457.436 1.243h82v77.643h-82z"/><path fill="#c8a755" d="M485.124 1.997h26.625v29.175h-26.625z"/><path stroke="#fff" d="m498.41 2-.049 7.454M511.749 9.951h-26.626"/><path fill="#000" d="M482.912 61.52v-1.15l4.321-4.73q.76-.832 1.252-1.446.492-.619.729-1.163.243-.55.243-1.15 0-.691-.332-1.196a2.16 2.16 0 0 0-.895-.78 2.9 2.9 0 0 0-1.279-.274q-.754 0-1.316.313a2.15 2.15 0 0 0-.863.863q-.301.555-.301 1.304h-1.508q0-1.15.53-2.02a3.7 3.7 0 0 1 1.445-1.355q.92-.486 2.064-.486 1.15 0 2.039.486.889.485 1.394 1.31a3.44 3.44 0 0 1 .505 1.835q0 .722-.262 1.412-.256.684-.895 1.528-.633.837-1.758 2.045l-2.94 3.145v.103h6.085v1.406zm15.168.179q-1.445 0-2.461-.786-1.016-.794-1.553-2.295-.537-1.509-.537-3.644 0-2.121.537-3.624.543-1.509 1.559-2.301 1.023-.8 2.455-.8 1.431 0 2.448.8 1.023.792 1.56 2.301.543 1.503.543 3.624 0 2.135-.537 3.644-.537 1.501-1.553 2.295-1.017.786-2.461.786m0-1.407q1.431 0 2.224-1.38t.793-3.938q0-1.7-.364-2.895-.358-1.195-1.036-1.822a2.28 2.28 0 0 0-1.617-.626q-1.42 0-2.218 1.4-.8 1.392-.799 3.943 0 1.7.358 2.89.357 1.188 1.029 1.809.678.62 1.63.62m11.327 1.407a4.9 4.9 0 0 1-1.611-.307q-.805-.294-1.47-.99-.665-.704-1.068-1.9-.403-1.2-.403-3.016 0-1.74.326-3.081.327-1.35.946-2.27.62-.926 1.496-1.406.882-.48 1.988-.48 1.1 0 1.956.442a3.7 3.7 0 0 1 1.406 1.215q.544.78.703 1.796h-1.559a2.9 2.9 0 0 0-.844-1.464q-.627-.582-1.662-.582-1.521 0-2.397 1.323-.868 1.323-.876 3.714h.103a3.84 3.84 0 0 1 1.949-1.528q.601-.21 1.272-.21 1.125 0 2.058.562.934.556 1.496 1.54.563.978.563 2.244 0 1.215-.544 2.224a4.14 4.14 0 0 1-1.527 1.599q-.978.587-2.301.575m0-1.407q.805 0 1.444-.402a2.9 2.9 0 0 0 1.016-1.08q.378-.678.378-1.509a3 3 0 0 0-.365-1.477 2.8 2.8 0 0 0-.991-1.067 2.6 2.6 0 0 0-1.431-.396q-.607 0-1.132.243a2.9 2.9 0 0 0-.92.652q-.39.415-.614.952a2.9 2.9 0 0 0-.224 1.119q0 .78.365 1.457a3 3 0 0 0 1.01 1.093q.645.415 1.464.415"/><path fill="#fff" stroke="gray" d="M540.436 1.243h82v77.643h-82z"/><path fill="#c8a755" d="M568.124 1.997h26.625v29.175h-26.625z"/><path stroke="#fff" d="m581.41 2-.049 7.454M594.749 9.951h-26.626"/><path fill="#000" d="M565.912 61.52v-1.15l4.321-4.73q.76-.832 1.252-1.446.492-.619.729-1.163.243-.55.243-1.15 0-.691-.332-1.196a2.16 2.16 0 0 0-.895-.78 2.9 2.9 0 0 0-1.279-.274q-.754 0-1.316.313a2.15 2.15 0 0 0-.863.863q-.301.555-.301 1.304h-1.508q0-1.15.53-2.02a3.7 3.7 0 0 1 1.445-1.355q.92-.486 2.064-.486 1.15 0 2.039.486.889.485 1.394 1.31a3.44 3.44 0 0 1 .505 1.835q0 .722-.262 1.412-.256.684-.895 1.528-.633.837-1.758 2.045l-2.94 3.145v.103h6.085v1.406zm15.168.179q-1.445 0-2.461-.786-1.017-.794-1.553-2.295-.537-1.509-.537-3.644 0-2.121.537-3.624.543-1.509 1.559-2.301 1.023-.8 2.455-.8 1.431 0 2.448.8 1.023.792 1.56 2.301.543 1.503.543 3.624 0 2.135-.537 3.644-.537 1.501-1.553 2.295-1.017.786-2.461.786m0-1.407q1.432 0 2.224-1.38t.793-3.938q0-1.7-.364-2.895-.358-1.195-1.036-1.822a2.28 2.28 0 0 0-1.617-.626q-1.42 0-2.218 1.4-.8 1.392-.799 3.943 0 1.7.358 2.89.357 1.188 1.029 1.809.678.62 1.63.62m7.037 1.228 5.856-11.583v-.102h-6.75V48.43h8.386v1.483l-5.83 11.608z"/><path fill="#fff" stroke="gray" d="M623.436 1.243h82v77.643h-82z"/><path fill="#c8a755" d="M651.124 1.997h26.625v29.175h-26.625z"/><path stroke="#fff" d="m664.41 2-.049 7.454M677.749 9.951h-26.626"/><path fill="#000" d="M648.912 61.52v-1.15l4.321-4.73q.76-.832 1.252-1.446.492-.619.729-1.163.243-.55.243-1.15 0-.691-.332-1.196a2.16 2.16 0 0 0-.895-.78 2.9 2.9 0 0 0-1.279-.274q-.754 0-1.316.313a2.15 2.15 0 0 0-.863.863q-.301.555-.301 1.304h-1.508q0-1.15.53-2.02a3.7 3.7 0 0 1 1.445-1.355q.92-.486 2.064-.486 1.15 0 2.039.486.889.485 1.394 1.31a3.44 3.44 0 0 1 .505 1.835q0 .722-.262 1.412-.256.684-.895 1.528-.633.837-1.758 2.045l-2.94 3.145v.103h6.085v1.406zm15.168.179q-1.445 0-2.461-.786-1.017-.794-1.553-2.295-.537-1.509-.537-3.644 0-2.121.537-3.624.543-1.509 1.559-2.301 1.023-.8 2.455-.8 1.431 0 2.448.8 1.023.792 1.56 2.301.543 1.503.543 3.624 0 2.135-.537 3.644-.537 1.501-1.553 2.295-1.017.786-2.461.786m0-1.407q1.432 0 2.224-1.38t.793-3.938q0-1.7-.364-2.895-.358-1.195-1.036-1.822a2.28 2.28 0 0 0-1.617-.626q-1.42 0-2.218 1.4-.8 1.392-.799 3.943 0 1.7.358 2.89.357 1.188 1.029 1.809.678.62 1.63.62m11.173 1.407q-1.317 0-2.327-.467-1.004-.473-1.566-1.297a3.26 3.26 0 0 1-.556-1.893 3.5 3.5 0 0 1 .326-1.534q.332-.71.908-1.182a2.8 2.8 0 0 1 1.298-.607v-.077a2.53 2.53 0 0 1-1.496-1.055 3.2 3.2 0 0 1-.55-1.86 3.16 3.16 0 0 1 .505-1.783 3.56 3.56 0 0 1 1.406-1.24q.901-.454 2.052-.454 1.138 0 2.033.454a3.56 3.56 0 0 1 1.406 1.24q.518.786.524 1.783a3.24 3.24 0 0 1-.569 1.86q-.556.812-1.476 1.055v.077q.71.127 1.278.607.569.473.908 1.182.339.704.345 1.534a3.3 3.3 0 0 1-.575 1.893q-.562.825-1.566 1.297-.997.467-2.308.467m0-1.407q.889 0 1.534-.287.646-.288.997-.812.352-.524.358-1.227a2.36 2.36 0 0 0-.383-1.31 2.6 2.6 0 0 0-1.029-.895q-.646-.326-1.477-.326-.837 0-1.496.326a2.6 2.6 0 0 0-1.029.895 2.3 2.3 0 0 0-.364 1.31q-.006.704.339 1.227.351.525 1.003.812.653.288 1.547.287m0-6.212q.703 0 1.247-.282.55-.281.863-.786t.319-1.182q-.006-.666-.313-1.157a2.04 2.04 0 0 0-.85-.767q-.543-.275-1.266-.275-.735 0-1.285.275-.55.267-.85.767-.3.492-.294 1.157-.006.676.301 1.182.312.506.863.786.55.282 1.265.282"/><path fill="#fff" stroke="gray" d="M789.437 1.243h82v77.643h-82z"/><path fill="#c8a755" d="M817.124 1.997h26.625v29.175h-26.625z"/><path stroke="#fff" d="m830.41 2-.049 7.454M843.749 9.951h-26.626"/><path fill="#000" d="M814.912 61.52v-1.15l4.321-4.73q.76-.832 1.253-1.446.492-.619.728-1.163.243-.55.243-1.15 0-.691-.332-1.196a2.16 2.16 0 0 0-.895-.78 2.9 2.9 0 0 0-1.278-.274q-.755 0-1.317.313a2.15 2.15 0 0 0-.863.863q-.3.555-.301 1.304h-1.508q0-1.15.53-2.02a3.7 3.7 0 0 1 1.445-1.355q.92-.486 2.065-.486 1.15 0 2.039.486a3.65 3.65 0 0 1 1.393 1.31 3.44 3.44 0 0 1 .505 1.835q0 .722-.262 1.412-.255.684-.895 1.528-.633.837-1.758 2.045l-2.94 3.145v.103h6.085v1.406zm15.5-13.091v13.09h-1.585V50.092h-.076l-3.196 2.122v-1.61l3.272-2.174zm8.035 13.27q-1.444 0-2.461-.786-1.016-.794-1.553-2.295-.537-1.509-.537-3.644 0-2.121.537-3.624.543-1.509 1.56-2.301 1.023-.8 2.454-.8 1.433 0 2.448.8 1.023.792 1.56 2.301.543 1.503.543 3.624 0 2.135-.537 3.644-.536 1.501-1.553 2.295-1.016.786-2.461.786m0-1.407q1.432 0 2.225-1.38.792-1.38.792-3.938 0-1.7-.364-2.895-.358-1.195-1.036-1.822a2.28 2.28 0 0 0-1.617-.626q-1.419 0-2.218 1.4-.799 1.392-.799 3.943 0 1.7.358 2.89.359 1.188 1.029 1.809.678.62 1.63.62"/><path fill="#fff" stroke="gray" d="M872.437 1.243h82v77.643h-82z"/><path fill="#c8a755" d="M900.124 1.997h26.625v29.175h-26.625z"/><path stroke="#fff" d="m913.41 2-.049 7.454M926.749 9.951h-26.626"/><path fill="#000" d="M900.062 60.52v-1.15l4.321-4.73q.76-.832 1.253-1.446.492-.619.729-1.163.243-.55.243-1.15 0-.691-.333-1.196a2.15 2.15 0 0 0-.895-.78 2.9 2.9 0 0 0-1.278-.274q-.755 0-1.317.313a2.16 2.16 0 0 0-.863.863q-.3.555-.3 1.304h-1.509q0-1.15.531-2.02a3.7 3.7 0 0 1 1.444-1.355q.92-.486 2.065-.486 1.15 0 2.039.486a3.66 3.66 0 0 1 1.394 1.31q.504.825.504 1.835 0 .722-.262 1.412-.255.684-.894 1.528-.633.837-1.758 2.045l-2.941 3.145v.103h6.086v1.406zm15.501-13.091v13.09h-1.585V49.092h-.077l-3.196 2.122v-1.61l3.273-2.174zm8.367 0v13.09h-1.585V49.092h-.077l-3.196 2.122v-1.61l3.273-2.174z"/><path fill="#fff" stroke="gray" d="M872.437 713.614h82v77.643h-82z"/><path fill="#c8a755" d="M900.124 714.368h26.625v29.175h-26.625z"/><path stroke="#fff" d="m913.41 714.371-.049 7.454M926.749 722.322h-26.626"/><path fill="#000" d="M897.561 772.454v-1.151l4.321-4.73q.76-.83 1.253-1.444.492-.62.728-1.164.243-.55.243-1.15 0-.69-.332-1.195a2.15 2.15 0 0 0-.895-.78 2.9 2.9 0 0 0-1.278-.275q-.755 0-1.317.313a2.16 2.16 0 0 0-.863.863q-.3.556-.3 1.304h-1.509q0-1.15.531-2.02a3.7 3.7 0 0 1 1.444-1.355q.92-.486 2.065-.486 1.15 0 2.039.486a3.66 3.66 0 0 1 1.393 1.31q.505.825.505 1.835 0 .722-.262 1.412-.255.684-.895 1.528-.633.837-1.757 2.046l-2.941 3.145v.102h6.085v1.406zm10.898 0v-1.151l4.321-4.73q.76-.83 1.253-1.444.492-.62.729-1.164.243-.55.243-1.15 0-.69-.333-1.195a2.15 2.15 0 0 0-.894-.78 2.9 2.9 0 0 0-1.279-.275q-.755 0-1.317.313-.555.307-.863.863-.3.556-.3 1.304h-1.509q0-1.15.531-2.02a3.7 3.7 0 0 1 1.445-1.355q.92-.486 2.064-.486 1.15 0 2.039.486a3.66 3.66 0 0 1 1.394 1.31q.505.825.505 1.835 0 .722-.262 1.412-.256.684-.895 1.528-.633.837-1.758 2.046l-2.94 3.145v.102h6.085v1.406zm15.169.179q-1.445 0-2.461-.786-1.017-.793-1.554-2.295-.536-1.509-.536-3.643 0-2.122.536-3.625.545-1.508 1.56-2.301 1.023-.8 2.455-.799 1.431 0 2.448.799 1.023.793 1.559 2.301.544 1.503.544 3.625 0 2.134-.537 3.643-.537 1.501-1.553 2.295-1.017.786-2.461.786m0-1.406q1.432 0 2.224-1.381.793-1.38.793-3.937 0-1.7-.365-2.896-.357-1.195-1.035-1.822a2.3 2.3 0 0 0-1.617-.626q-1.42 0-2.218 1.4-.8 1.393-.799 3.944 0 1.7.358 2.889.357 1.188 1.029 1.809.677.62 1.63.62"/><path fill="#fff" stroke="gray" d="M623.437 713.614h82v77.643h-82z"/><path fill="#c8a755" d="M651.124 714.368h26.625v29.175h-26.625z"/><path stroke="#fff" d="m664.41 714.371-.049 7.454M677.749 722.322h-26.626"/><path fill="#000" d="M648.561 772.454v-1.151l4.321-4.73q.76-.83 1.253-1.444.492-.62.728-1.164.243-.55.243-1.15 0-.69-.332-1.195a2.15 2.15 0 0 0-.895-.78 2.9 2.9 0 0 0-1.278-.275q-.755 0-1.317.313a2.16 2.16 0 0 0-.863.863q-.3.556-.3 1.304h-1.509q0-1.15.531-2.02a3.7 3.7 0 0 1 1.444-1.355q.92-.486 2.065-.486 1.15 0 2.039.486a3.66 3.66 0 0 1 1.393 1.31q.505.825.505 1.835 0 .722-.262 1.412-.255.684-.895 1.528-.633.837-1.757 2.046l-2.941 3.145v.102h6.085v1.406zm10.898 0v-1.151l4.321-4.73q.76-.83 1.253-1.444.492-.62.729-1.164.243-.55.243-1.15 0-.69-.333-1.195a2.15 2.15 0 0 0-.894-.78 2.9 2.9 0 0 0-1.279-.275q-.755 0-1.317.313-.555.307-.863.863-.3.556-.3 1.304h-1.509q0-1.15.531-2.02a3.7 3.7 0 0 1 1.445-1.355q.92-.486 2.064-.486 1.15 0 2.039.486a3.66 3.66 0 0 1 1.394 1.31q.505.825.505 1.835 0 .722-.262 1.412-.256.684-.895 1.528-.633.837-1.758 2.046l-2.94 3.145v.102h6.085v1.406zm15.322.179q-1.266 0-2.256-.435-.986-.434-1.566-1.208a3.25 3.25 0 0 1-.627-1.809h1.611q.051.634.435 1.093a2.5 2.5 0 0 0 1.003.703q.62.25 1.375.25.844 0 1.495-.294a2.46 2.46 0 0 0 1.023-.818q.37-.525.371-1.215 0-.721-.358-1.272-.358-.556-1.049-.869-.69-.313-1.687-.313h-1.048v-1.407h1.048q.78 0 1.368-.281.594-.281.927-.793.339-.511.339-1.201 0-.665-.295-1.157a2 2 0 0 0-.83-.767q-.531-.275-1.253-.275a3.3 3.3 0 0 0-1.279.249 2.4 2.4 0 0 0-.971.71 1.84 1.84 0 0 0-.409 1.112h-1.535q.039-1.029.621-1.803.58-.78 1.521-1.214a4.9 4.9 0 0 1 2.077-.435q1.215 0 2.084.492a3.46 3.46 0 0 1 1.336 1.285q.467.8.467 1.726 0 1.106-.582 1.886-.576.78-1.566 1.08v.102q1.24.205 1.937 1.055.696.843.696 2.09 0 1.068-.581 1.918-.576.843-1.573 1.329t-2.269.486"/><path fill="#fff" stroke="gray" d="M374.436 713.614h82v77.643h-82z"/><path fill="#c8a755" d="M402.124 714.368h26.625v29.175h-26.625z"/><path stroke="#fff" d="m415.41 714.371-.049 7.454M428.749 722.322h-26.626"/><path fill="#000" d="M399.561 772.454v-1.151l4.321-4.73q.76-.83 1.253-1.444.492-.62.728-1.164.243-.55.243-1.15 0-.69-.332-1.195a2.15 2.15 0 0 0-.895-.78 2.9 2.9 0 0 0-1.278-.275q-.755 0-1.317.313a2.15 2.15 0 0 0-.863.863q-.3.556-.301 1.304h-1.508q0-1.15.53-2.02a3.7 3.7 0 0 1 1.445-1.355q.92-.486 2.065-.486 1.15 0 2.039.486a3.66 3.66 0 0 1 1.393 1.31q.505.825.505 1.835 0 .722-.262 1.412-.255.684-.895 1.528-.633.837-1.758 2.046l-2.94 3.145v.102h6.085v1.406zm10.898 0v-1.151l4.321-4.73q.76-.83 1.253-1.444.492-.62.729-1.164.243-.55.243-1.15 0-.69-.333-1.195a2.15 2.15 0 0 0-.895-.78 2.9 2.9 0 0 0-1.278-.275q-.755 0-1.317.313-.555.307-.863.863-.3.556-.3 1.304h-1.509q0-1.15.531-2.02a3.7 3.7 0 0 1 1.445-1.355q.92-.486 2.064-.486 1.15 0 2.039.486a3.66 3.66 0 0 1 1.394 1.31q.505.825.505 1.835 0 .722-.262 1.412-.256.684-.895 1.528-.633.837-1.758 2.046l-2.94 3.145v.102h6.085v1.406zm15.245.179a4.9 4.9 0 0 1-1.611-.307q-.805-.294-1.47-.991-.665-.702-1.067-1.898-.403-1.202-.403-3.017 0-1.739.326-3.081.326-1.349.946-2.269.62-.927 1.496-1.406.882-.48 1.988-.48 1.1 0 1.956.441.863.435 1.406 1.215.544.78.703 1.796h-1.56a2.9 2.9 0 0 0-.843-1.464q-.627-.582-1.662-.582-1.521 0-2.397 1.324-.87 1.323-.876 3.713h.102a3.85 3.85 0 0 1 1.95-1.527 3.8 3.8 0 0 1 1.272-.211q1.125 0 2.058.562a4.16 4.16 0 0 1 1.496 1.541q.562.978.562 2.243 0 1.214-.543 2.225a4.14 4.14 0 0 1-1.528 1.598q-.978.588-2.301.575m0-1.406a2.65 2.65 0 0 0 1.445-.403q.645-.402 1.016-1.08.378-.678.377-1.509 0-.812-.364-1.476a2.8 2.8 0 0 0-.991-1.068 2.6 2.6 0 0 0-1.432-.396q-.607 0-1.131.243a2.9 2.9 0 0 0-.92.652q-.39.415-.614.952a2.9 2.9 0 0 0-.224 1.119 3.03 3.03 0 0 0 1.374 2.55 2.65 2.65 0 0 0 1.464.416"/><path fill="#fff" stroke="gray" d="M291.436 713.614h82v77.643h-82z"/><path fill="#c8a755" d="M319.124 714.368h26.625v29.175h-26.625z"/><path stroke="#fff" d="m332.41 714.371-.049 7.454M345.749 722.322h-26.626"/><path fill="#000" d="M316.561 772.454v-1.151l4.321-4.73q.76-.83 1.253-1.444.492-.62.728-1.164.243-.55.243-1.15 0-.69-.332-1.195a2.15 2.15 0 0 0-.895-.78 2.9 2.9 0 0 0-1.278-.275q-.755 0-1.317.313a2.15 2.15 0 0 0-.863.863q-.3.556-.301 1.304h-1.508q0-1.15.53-2.02a3.7 3.7 0 0 1 1.445-1.355q.92-.486 2.065-.486 1.15 0 2.039.486a3.66 3.66 0 0 1 1.393 1.31q.505.825.505 1.835 0 .722-.262 1.412-.255.684-.895 1.528-.633.837-1.758 2.046l-2.94 3.145v.102h6.085v1.406zm10.898 0v-1.151l4.321-4.73q.76-.83 1.253-1.444.492-.62.729-1.164.243-.55.243-1.15 0-.69-.333-1.195a2.15 2.15 0 0 0-.895-.78 2.9 2.9 0 0 0-1.278-.275q-.755 0-1.317.313-.555.307-.863.863-.3.556-.3 1.304h-1.509q0-1.15.531-2.02a3.7 3.7 0 0 1 1.445-1.355q.92-.486 2.064-.486 1.15 0 2.039.486a3.66 3.66 0 0 1 1.394 1.31q.505.825.505 1.835 0 .722-.262 1.412-.256.684-.895 1.528-.633.837-1.758 2.046l-2.94 3.145v.102h6.085v1.406zm11.308 0 5.855-11.582v-.103h-6.75v-1.406h8.386v1.483l-5.829 11.608z"/><path fill="#fff" stroke="gray" d="M208.436 713.614h82v77.643h-82z"/><path fill="#c8a755" d="M236.124 714.368h26.625v29.175h-26.625z"/><path stroke="#fff" d="m249.41 714.371-.049 7.454M262.749 722.322h-26.626"/><path fill="#000" d="M233.561 772.454v-1.151l4.321-4.73q.76-.83 1.253-1.444.492-.62.728-1.164.243-.55.243-1.15 0-.69-.332-1.195a2.15 2.15 0 0 0-.895-.78 2.9 2.9 0 0 0-1.278-.275q-.754 0-1.317.313a2.15 2.15 0 0 0-.863.863q-.3.556-.301 1.304h-1.508q0-1.15.53-2.02a3.7 3.7 0 0 1 1.445-1.355q.92-.486 2.065-.486 1.15 0 2.039.486a3.66 3.66 0 0 1 1.393 1.31q.505.825.505 1.835 0 .722-.262 1.412-.255.684-.895 1.528-.633.837-1.758 2.046l-2.94 3.145v.102h6.085v1.406zm10.898 0v-1.151l4.321-4.73q.76-.83 1.253-1.444.492-.62.729-1.164.243-.55.243-1.15 0-.69-.333-1.195a2.15 2.15 0 0 0-.895-.78 2.9 2.9 0 0 0-1.278-.275q-.755 0-1.317.313-.555.307-.863.863-.3.556-.3 1.304h-1.509q0-1.15.531-2.02a3.7 3.7 0 0 1 1.445-1.355q.92-.486 2.064-.486 1.15 0 2.039.486a3.66 3.66 0 0 1 1.394 1.31q.505.825.505 1.835 0 .722-.262 1.412-.256.684-.895 1.528-.633.837-1.758 2.046l-2.94 3.145v.102h6.085v1.406zm15.092.179q-1.317 0-2.327-.467-1.003-.472-1.566-1.297a3.26 3.26 0 0 1-.556-1.892 3.48 3.48 0 0 1 1.234-2.717 2.8 2.8 0 0 1 1.297-.607v-.077a2.53 2.53 0 0 1-1.495-1.054 3.2 3.2 0 0 1-.55-1.861 3.16 3.16 0 0 1 .505-1.783 3.56 3.56 0 0 1 1.406-1.24q.901-.454 2.052-.454 1.137 0 2.033.454a3.57 3.57 0 0 1 1.406 1.24q.518.786.524 1.783a3.24 3.24 0 0 1-.569 1.861 2.53 2.53 0 0 1-1.477 1.054v.077q.71.128 1.279.607.569.473.908 1.183.337.703.345 1.534a3.3 3.3 0 0 1-.576 1.892q-.562.825-1.566 1.297-.997.467-2.307.467m0-1.406q.888 0 1.534-.288.646-.287.997-.812.351-.524.358-1.227a2.36 2.36 0 0 0-.383-1.31 2.6 2.6 0 0 0-1.03-.895q-.645-.327-1.476-.326-.837 0-1.496.326a2.6 2.6 0 0 0-1.029.895 2.3 2.3 0 0 0-.364 1.31q-.007.703.338 1.227.352.525 1.004.812t1.547.288m0-6.213q.703 0 1.246-.282a2.13 2.13 0 0 0 .863-.786q.314-.505.32-1.182-.007-.665-.313-1.157a2.03 2.03 0 0 0-.851-.767q-.543-.275-1.265-.275-.735 0-1.285.275a2 2 0 0 0-.85.767q-.3.492-.294 1.157-.006.677.3 1.182.314.506.863.786.55.282 1.266.282"/><path fill="#fff" stroke="gray" d="M125.436 556.328h82v77.643h-82z"/><path fill="#c8a755" d="M153.124 557.082h26.625v29.176h-26.625z"/><path stroke="#fff" d="m166.41 557.086-.049 7.453M179.749 565.036h-26.626"/><path fill="#000" d="M150.561 615.168v-1.15l4.321-4.73q.76-.831 1.253-1.445.492-.62.728-1.163.243-.55.243-1.151 0-.69-.332-1.195a2.15 2.15 0 0 0-.895-.78 2.9 2.9 0 0 0-1.278-.275q-.755 0-1.317.313a2.16 2.16 0 0 0-.863.863q-.3.557-.301 1.304h-1.508q0-1.15.53-2.02a3.7 3.7 0 0 1 1.445-1.355q.92-.485 2.065-.485 1.15 0 2.039.485a3.65 3.65 0 0 1 1.393 1.311q.505.824.505 1.834 0 .723-.262 1.413-.255.684-.895 1.528-.633.837-1.758 2.045l-2.94 3.145v.102h6.085v1.406zm15.322.179q-1.266 0-2.257-.434-.984-.435-1.566-1.208a3.25 3.25 0 0 1-.626-1.809h1.61q.052.633.435 1.093.383.454 1.004.703.62.249 1.374.249.843 0 1.496-.294a2.46 2.46 0 0 0 1.022-.818q.372-.524.371-1.215 0-.721-.358-1.272-.357-.555-1.048-.869-.69-.313-1.688-.313h-1.048v-1.406h1.048q.78 0 1.368-.282.595-.28.927-.792.339-.512.339-1.202 0-.665-.294-1.157a2 2 0 0 0-.831-.767q-.53-.275-1.253-.275a3.3 3.3 0 0 0-1.278.249q-.595.243-.972.71a1.85 1.85 0 0 0-.409 1.112h-1.534q.038-1.03.62-1.802.582-.78 1.521-1.215a4.9 4.9 0 0 1 2.078-.434q1.214 0 2.083.492.87.486 1.336 1.284.467.8.467 1.726 0 1.107-.582 1.886-.575.78-1.566 1.08v.103q1.24.204 1.937 1.054.697.844.697 2.09 0 1.068-.582 1.918-.575.844-1.572 1.33-.997.485-2.269.485m7.037-.179v-1.15l4.321-4.73q.76-.831 1.253-1.445.492-.62.729-1.163.243-.55.243-1.151 0-.69-.333-1.195a2.15 2.15 0 0 0-.895-.78 2.9 2.9 0 0 0-1.278-.275q-.755 0-1.317.313a2.17 2.17 0 0 0-.863.863q-.3.557-.3 1.304h-1.509q0-1.15.531-2.02a3.7 3.7 0 0 1 1.444-1.355q.92-.485 2.065-.485 1.15 0 2.039.485a3.66 3.66 0 0 1 1.394 1.311q.505.824.505 1.834 0 .723-.262 1.413-.256.684-.895 1.528-.633.837-1.758 2.045l-2.941 3.145v.102h6.086v1.406z"/><path fill="#fff" stroke="gray" d="M208.436 556.328h82v77.643h-82z"/><path fill="#c8a755" d="M236.124 557.082h26.625v29.176h-26.625z"/><path stroke="#fff" d="m249.41 557.086-.049 7.453M262.749 565.036h-26.626"/><path fill="#000" d="M233.561 615.168v-1.15l4.321-4.73q.76-.831 1.253-1.445.492-.62.728-1.163.243-.55.243-1.151 0-.69-.332-1.195a2.15 2.15 0 0 0-.895-.78 2.9 2.9 0 0 0-1.278-.275q-.754 0-1.317.313a2.16 2.16 0 0 0-.863.863q-.3.557-.301 1.304h-1.508q0-1.15.53-2.02a3.7 3.7 0 0 1 1.445-1.355q.92-.485 2.065-.485 1.15 0 2.039.485a3.65 3.65 0 0 1 1.393 1.311q.505.824.505 1.834 0 .723-.262 1.413-.255.684-.895 1.528-.633.837-1.758 2.045l-2.94 3.145v.102h6.085v1.406zm15.322.179q-1.266 0-2.257-.434-.984-.435-1.566-1.208a3.25 3.25 0 0 1-.626-1.809h1.61q.052.633.435 1.093.383.454 1.004.703.62.249 1.374.249.843 0 1.496-.294a2.46 2.46 0 0 0 1.022-.818q.371-.524.371-1.215 0-.721-.358-1.272-.357-.555-1.048-.869-.69-.313-1.688-.313h-1.048v-1.406h1.048q.78 0 1.368-.282.595-.28.927-.792.339-.512.339-1.202 0-.665-.294-1.157a2 2 0 0 0-.831-.767q-.53-.275-1.253-.275a3.3 3.3 0 0 0-1.278.249q-.595.243-.972.71a1.85 1.85 0 0 0-.409 1.112h-1.534q.038-1.03.62-1.802.582-.78 1.521-1.215a4.9 4.9 0 0 1 2.078-.434q1.214 0 2.083.492.87.486 1.336 1.284.467.8.467 1.726 0 1.107-.582 1.886-.575.78-1.566 1.08v.103q1.24.204 1.937 1.054.697.844.697 2.09 0 1.068-.582 1.918-.575.844-1.572 1.33-.997.485-2.269.485m11.46 0q-1.265 0-2.256-.434-.984-.435-1.566-1.208a3.25 3.25 0 0 1-.626-1.809h1.61a1.9 1.9 0 0 0 .435 1.093q.383.454 1.004.703.62.249 1.374.249.843 0 1.496-.294a2.46 2.46 0 0 0 1.022-.818q.371-.524.371-1.215 0-.721-.358-1.272-.358-.555-1.048-.869t-1.688-.313h-1.048v-1.406h1.048q.78 0 1.368-.282.596-.28.927-.792.339-.512.339-1.202 0-.665-.294-1.157a2 2 0 0 0-.831-.767q-.53-.275-1.253-.275a3.3 3.3 0 0 0-1.278.249 2.4 2.4 0 0 0-.972.71 1.85 1.85 0 0 0-.409 1.112h-1.534q.038-1.03.62-1.802.582-.78 1.521-1.215a4.9 4.9 0 0 1 2.078-.434q1.214 0 2.083.492.87.486 1.336 1.284.467.8.467 1.726 0 1.107-.582 1.886-.575.78-1.566 1.08v.103q1.24.204 1.937 1.054.697.844.697 2.09 0 1.068-.582 1.918-.575.844-1.572 1.33-.998.485-2.27.485"/><path fill="#fff" stroke="gray" d="M291.436 556.328h82v77.643h-82z"/><path fill="#c8a755" d="M319.124 557.082h26.625v29.176h-26.625z"/><path stroke="#fff" d="m332.41 557.086-.049 7.453M345.749 565.036h-26.626"/><path fill="#000" d="M316.561 615.168v-1.15l4.321-4.73q.76-.831 1.253-1.445.492-.62.728-1.163.243-.55.243-1.151 0-.69-.332-1.195a2.15 2.15 0 0 0-.895-.78 2.9 2.9 0 0 0-1.278-.275q-.755 0-1.317.313a2.16 2.16 0 0 0-.863.863q-.3.557-.301 1.304h-1.508q0-1.15.53-2.02a3.7 3.7 0 0 1 1.445-1.355q.92-.485 2.065-.485 1.15 0 2.039.485a3.65 3.65 0 0 1 1.393 1.311q.505.824.505 1.834 0 .723-.262 1.413-.255.684-.895 1.528-.633.837-1.758 2.045l-2.94 3.145v.102h6.085v1.406zm15.322.179q-1.266 0-2.257-.434-.984-.435-1.566-1.208a3.25 3.25 0 0 1-.626-1.809h1.61q.052.633.435 1.093.383.454 1.004.703.62.249 1.374.249.843 0 1.496-.294a2.46 2.46 0 0 0 1.022-.818q.371-.524.371-1.215 0-.721-.358-1.272-.358-.555-1.048-.869t-1.688-.313h-1.048v-1.406h1.048q.78 0 1.368-.282.596-.28.927-.792.339-.512.339-1.202 0-.665-.294-1.157a2 2 0 0 0-.831-.767q-.53-.275-1.253-.275a3.3 3.3 0 0 0-1.278.249q-.595.243-.972.71a1.85 1.85 0 0 0-.409 1.112h-1.534q.038-1.03.62-1.802.582-.78 1.521-1.215a4.9 4.9 0 0 1 2.078-.434q1.214 0 2.083.492.87.486 1.336 1.284.467.8.467 1.726 0 1.107-.582 1.886-.575.78-1.566 1.08v.103q1.24.204 1.937 1.054.697.844.697 2.09 0 1.068-.582 1.918-.575.844-1.572 1.33-.997.485-2.269.485m6.73-2.863v-1.304l5.753-9.103h.946v2.02h-.639l-4.347 6.878v.102h7.748v1.407zm6.162 2.684v-13.091h1.509v13.091z"/><path fill="#fff" stroke="gray" d="M373.861 556.328h82v77.643h-82z"/><path fill="#c8a755" d="M401.549 557.082h26.625v29.176h-26.625z"/><path stroke="#fff" d="m414.835 557.086-.049 7.453M428.174 565.036h-26.626"/><path fill="#000" d="M398.986 615.168v-1.15l4.321-4.73q.76-.831 1.253-1.445.492-.62.728-1.163.243-.55.243-1.151 0-.69-.332-1.195a2.16 2.16 0 0 0-.895-.78 2.9 2.9 0 0 0-1.278-.275q-.755 0-1.317.313a2.16 2.16 0 0 0-.863.863q-.3.557-.301 1.304h-1.508q0-1.15.53-2.02a3.7 3.7 0 0 1 1.445-1.355q.92-.485 2.065-.485 1.15 0 2.039.485a3.65 3.65 0 0 1 1.393 1.311q.505.824.505 1.834 0 .723-.262 1.413-.255.684-.895 1.528-.633.837-1.758 2.045l-2.94 3.145v.102h6.085v1.406zm15.321.179q-1.264 0-2.256-.434-.984-.435-1.566-1.208a3.24 3.24 0 0 1-.626-1.809h1.61a1.9 1.9 0 0 0 .435 1.093q.384.454 1.004.703t1.374.249q.843 0 1.496-.294a2.46 2.46 0 0 0 1.022-.818q.371-.524.371-1.215 0-.721-.358-1.272-.358-.555-1.048-.869t-1.688-.313h-1.048v-1.406h1.048q.78 0 1.368-.282.595-.28.927-.792.339-.512.339-1.202 0-.665-.294-1.157a2 2 0 0 0-.831-.767q-.53-.275-1.253-.275a3.3 3.3 0 0 0-1.278.249 2.4 2.4 0 0 0-.972.71 1.85 1.85 0 0 0-.409 1.112h-1.534q.038-1.03.62-1.802.582-.78 1.521-1.215a4.9 4.9 0 0 1 2.078-.434q1.214 0 2.083.492.87.486 1.336 1.284.467.8.467 1.726 0 1.107-.582 1.886-.574.78-1.566 1.08v.103q1.24.204 1.937 1.054.697.844.697 2.09 0 1.068-.582 1.918-.575.844-1.572 1.33-.998.485-2.27.485m11.129 0q-1.125 0-2.026-.447a3.76 3.76 0 0 1-1.445-1.227 3.35 3.35 0 0 1-.594-1.777h1.534q.089.888.805 1.47.723.575 1.726.575.805 0 1.432-.377.633-.377.991-1.036a3.1 3.1 0 0 0 .364-1.502q0-.856-.377-1.527a2.77 2.77 0 0 0-1.023-1.068 2.9 2.9 0 0 0-1.489-.396 4.1 4.1 0 0 0-1.234.185q-.633.186-1.042.48l-1.483-.179.793-6.444h6.801v1.407h-5.472l-.46 3.861h.077q.402-.32 1.01-.531a3.8 3.8 0 0 1 1.265-.211q1.202 0 2.142.575.946.57 1.483 1.56.543.991.543 2.263 0 1.253-.562 2.237a4.1 4.1 0 0 1-1.535 1.547q-.978.562-2.224.562"/><path fill="#fff" stroke="gray" d="M539.861 556.328h82v77.643h-82z"/><path fill="#c8a755" d="M567.549 557.082h26.625v29.176h-26.625z"/><path stroke="#fff" d="m580.835 557.086-.049 7.453M594.174 565.036h-26.626"/><path fill="#000" d="M564.986 615.168v-1.15l4.321-4.73q.76-.831 1.253-1.445.492-.62.728-1.163.243-.55.243-1.151 0-.69-.332-1.195a2.16 2.16 0 0 0-.895-.78 2.9 2.9 0 0 0-1.278-.275q-.755 0-1.317.313a2.16 2.16 0 0 0-.863.863q-.3.557-.301 1.304h-1.508q0-1.15.53-2.02a3.7 3.7 0 0 1 1.445-1.355q.92-.485 2.065-.485 1.15 0 2.039.485a3.65 3.65 0 0 1 1.393 1.311q.505.824.505 1.834 0 .723-.262 1.413-.255.684-.895 1.528-.633.837-1.758 2.045l-2.94 3.145v.102h6.085v1.406zm15.321.179q-1.264 0-2.256-.434-.984-.435-1.566-1.208a3.24 3.24 0 0 1-.626-1.809h1.61a1.9 1.9 0 0 0 .435 1.093q.384.454 1.004.703t1.374.249q.843 0 1.496-.294a2.46 2.46 0 0 0 1.022-.818q.372-.524.371-1.215 0-.721-.358-1.272-.357-.555-1.048-.869-.69-.313-1.688-.313h-1.048v-1.406h1.048q.78 0 1.368-.282.596-.28.927-.792.339-.512.339-1.202 0-.665-.294-1.157a2 2 0 0 0-.831-.767q-.53-.275-1.253-.275a3.3 3.3 0 0 0-1.278.249 2.4 2.4 0 0 0-.972.71 1.85 1.85 0 0 0-.409 1.112h-1.534q.038-1.03.62-1.802.582-.78 1.521-1.215a4.9 4.9 0 0 1 2.078-.434q1.214 0 2.083.492.87.486 1.336 1.284.467.8.467 1.726 0 1.107-.582 1.886-.574.78-1.566 1.08v.103q1.24.204 1.937 1.054.697.844.697 2.09 0 1.068-.582 1.918-.575.844-1.572 1.33-.998.485-2.27.485m7.447-.179 5.855-11.582v-.102h-6.75v-1.407h8.387v1.483l-5.83 11.608z"/><path fill="#fff" stroke="gray" d="M622.286 556.328h82v77.643h-82z"/><path fill="#c8a755" d="M649.974 557.082h26.625v29.176h-26.625z"/><path stroke="#fff" d="m663.26 557.086-.049 7.453M676.599 565.036h-26.626"/><path fill="#000" d="M647.411 615.168v-1.15l4.321-4.73q.76-.831 1.253-1.445.492-.62.728-1.163.243-.55.243-1.151 0-.69-.332-1.195a2.15 2.15 0 0 0-.895-.78 2.9 2.9 0 0 0-1.278-.275q-.755 0-1.317.313a2.16 2.16 0 0 0-.863.863q-.3.557-.301 1.304h-1.508q0-1.15.53-2.02a3.7 3.7 0 0 1 1.445-1.355q.92-.485 2.065-.485 1.15 0 2.039.485a3.65 3.65 0 0 1 1.393 1.311q.505.824.505 1.834 0 .723-.262 1.413-.256.684-.895 1.528-.633.837-1.758 2.045l-2.94 3.145v.102h6.085v1.406zm15.322.179q-1.266 0-2.257-.434-.984-.435-1.566-1.208a3.25 3.25 0 0 1-.626-1.809h1.61q.052.633.435 1.093.383.454 1.004.703.62.249 1.374.249.843 0 1.496-.294a2.46 2.46 0 0 0 1.022-.818q.372-.524.371-1.215 0-.721-.358-1.272-.358-.555-1.048-.869t-1.688-.313h-1.048v-1.406h1.048q.78 0 1.368-.282.596-.28.927-.792.339-.512.339-1.202 0-.665-.294-1.157a2 2 0 0 0-.831-.767q-.53-.275-1.253-.275a3.3 3.3 0 0 0-1.278.249 2.4 2.4 0 0 0-.972.71 1.85 1.85 0 0 0-.409 1.112h-1.534q.038-1.03.62-1.802.582-.78 1.521-1.215a4.9 4.9 0 0 1 2.078-.434q1.214 0 2.083.492.87.486 1.336 1.284.467.8.467 1.726 0 1.107-.582 1.886-.574.78-1.566 1.08v.103q1.24.204 1.937 1.054.697.844.697 2.09 0 1.068-.582 1.918-.575.844-1.572 1.33-.997.485-2.269.485m11.23 0q-1.317 0-2.326-.466-1.004-.474-1.566-1.298a3.26 3.26 0 0 1-.557-1.892 3.5 3.5 0 0 1 .326-1.534q.333-.71.908-1.182.582-.48 1.298-.608v-.076a2.53 2.53 0 0 1-1.496-1.055 3.2 3.2 0 0 1-.55-1.86 3.17 3.17 0 0 1 .505-1.784q.512-.786 1.406-1.24.902-.453 2.052-.453 1.138 0 2.033.453a3.56 3.56 0 0 1 1.406 1.24q.518.787.524 1.784a3.24 3.24 0 0 1-.568 1.86 2.53 2.53 0 0 1-1.477 1.055v.076a2.7 2.7 0 0 1 1.278.608q.57.473.908 1.182.339.703.345 1.534a3.3 3.3 0 0 1-.575 1.892q-.562.824-1.566 1.298-.997.466-2.308.466m0-1.406q.89 0 1.534-.288.646-.287.998-.811a2.2 2.2 0 0 0 .358-1.228 2.36 2.36 0 0 0-.384-1.31 2.6 2.6 0 0 0-1.029-.895q-.646-.326-1.477-.326-.837 0-1.495.326a2.6 2.6 0 0 0-1.03.895 2.3 2.3 0 0 0-.364 1.31q-.006.703.339 1.228.351.524 1.003.811.653.288 1.547.288m0-6.213a2.7 2.7 0 0 0 1.247-.281q.55-.282.863-.786.313-.505.319-1.183-.006-.665-.313-1.157a2.03 2.03 0 0 0-.85-.767q-.543-.275-1.266-.275-.735 0-1.284.275-.55.269-.851.767-.3.492-.294 1.157-.006.678.301 1.183.313.504.863.786.55.28 1.265.281"/><path fill="#fff" stroke="gray" d="M42.436 713.614h82v77.643h-82z"/><path fill="#c8a755" d="M70.124 714.368h26.625v29.175H70.124z"/><path stroke="#fff" d="m83.41 714.371-.049 7.454M96.749 722.322H70.123"/><path fill="#000" d="M66.92 772.454v-1.151l4.321-4.73a30 30 0 0 0 1.253-1.444q.492-.62.729-1.164.243-.55.243-1.15 0-.69-.333-1.195a2.15 2.15 0 0 0-.894-.78 2.9 2.9 0 0 0-1.279-.275q-.754 0-1.317.313-.555.307-.863.863-.3.556-.3 1.304h-1.509q0-1.15.531-2.02a3.7 3.7 0 0 1 1.445-1.355q.92-.486 2.064-.486 1.15 0 2.04.486a3.66 3.66 0 0 1 1.393 1.31q.505.825.505 1.835 0 .722-.262 1.412-.256.684-.895 1.528-.633.837-1.758 2.046l-2.94 3.145v.102h6.085v1.406zm15.322.179q-1.266 0-2.256-.435-.986-.434-1.566-1.208a3.25 3.25 0 0 1-.627-1.809h1.611a1.9 1.9 0 0 0 .435 1.093q.383.454 1.003.703.62.25 1.374.25.845 0 1.496-.294a2.46 2.46 0 0 0 1.023-.818q.37-.525.37-1.215 0-.721-.357-1.272-.358-.556-1.049-.869-.69-.313-1.687-.313h-1.048v-1.407h1.048q.78 0 1.368-.281.594-.281.927-.793.338-.511.338-1.201 0-.665-.294-1.157a2 2 0 0 0-.83-.767q-.531-.275-1.253-.275-.678 0-1.279.249-.594.243-.971.71a1.84 1.84 0 0 0-.41 1.112h-1.534q.04-1.029.62-1.803.582-.78 1.522-1.214a4.9 4.9 0 0 1 2.077-.435q1.215 0 2.084.492.87.486 1.336 1.285.467.8.467 1.726 0 1.106-.582 1.886-.576.78-1.566 1.08v.102q1.24.205 1.937 1.055.696.843.696 2.09 0 1.068-.581 1.918-.576.843-1.573 1.329t-2.269.486m11.308 0q-1.445 0-2.461-.786-1.017-.793-1.554-2.295-.537-1.509-.537-3.643 0-2.122.537-3.625.544-1.508 1.56-2.301 1.023-.8 2.455-.799 1.431 0 2.448.799 1.021.793 1.56 2.301.543 1.503.543 3.625 0 2.134-.537 3.643-.537 1.501-1.553 2.295-1.017.786-2.461.786m0-1.406q1.431 0 2.224-1.381.793-1.38.793-3.937 0-1.7-.365-2.896-.358-1.195-1.035-1.822a2.3 2.3 0 0 0-1.617-.626q-1.42 0-2.218 1.4-.8 1.393-.8 3.944 0 1.7.359 2.889.357 1.188 1.029 1.809.677.62 1.63.62"/><path fill="#fff" stroke="gray" d="M42.436 556.328h82v77.643h-82z"/><path fill="#c8a755" d="M70.124 557.082h26.625v29.176H70.124z"/><path stroke="#fff" d="m83.41 557.086-.049 7.453M96.749 565.036H70.123"/><path fill="#000" d="M66.92 615.168v-1.15l4.321-4.73q.76-.831 1.253-1.445.492-.62.729-1.163a2.8 2.8 0 0 0 .243-1.151q0-.69-.333-1.195a2.15 2.15 0 0 0-.894-.78 2.9 2.9 0 0 0-1.279-.275q-.754 0-1.317.313-.555.308-.863.863-.3.557-.3 1.304h-1.509q0-1.15.531-2.02a3.7 3.7 0 0 1 1.445-1.355q.92-.485 2.064-.485 1.15 0 2.04.485a3.65 3.65 0 0 1 1.393 1.311 3.44 3.44 0 0 1 .505 1.834q0 .723-.262 1.413-.256.684-.895 1.528-.633.837-1.758 2.045l-2.94 3.145v.102h6.085v1.406zm15.322.179q-1.266 0-2.256-.434-.986-.435-1.566-1.208a3.25 3.25 0 0 1-.627-1.809h1.611q.051.633.435 1.093.383.454 1.003.703t1.374.249q.845 0 1.496-.294a2.46 2.46 0 0 0 1.023-.818q.37-.524.37-1.215 0-.721-.357-1.272-.358-.555-1.049-.869-.69-.313-1.687-.313h-1.048v-1.406h1.048q.78 0 1.368-.282.594-.28.927-.792.338-.512.338-1.202 0-.665-.294-1.157a2 2 0 0 0-.83-.767q-.531-.275-1.253-.275-.678 0-1.279.249-.594.243-.971.71a1.85 1.85 0 0 0-.41 1.112h-1.534q.04-1.03.62-1.802.582-.78 1.522-1.215a4.9 4.9 0 0 1 2.077-.434q1.215 0 2.084.492.87.486 1.336 1.284.467.8.467 1.726 0 1.107-.582 1.886-.576.78-1.566 1.08v.103q1.24.204 1.937 1.054.696.844.696 2.09 0 1.068-.581 1.918-.576.844-1.573 1.33-.997.485-2.269.485m11.64-13.27v13.091h-1.585v-11.429h-.077l-3.196 2.123v-1.611l3.273-2.174z"/><path fill="#fff" stroke="gray" d="M789.437 713.614h82v77.643h-82z"/><path fill="#c8a755" d="M817.124 714.368h26.625v29.175h-26.625z"/><path stroke="#fff" d="m830.41 714.371-.049 7.454M843.749 722.322h-26.626"/><path fill="#000" d="M814.561 772.454v-1.151l4.321-4.73q.76-.83 1.253-1.444.492-.62.728-1.164.243-.55.243-1.15 0-.69-.332-1.195a2.15 2.15 0 0 0-.895-.78 2.9 2.9 0 0 0-1.278-.275q-.755 0-1.317.313a2.16 2.16 0 0 0-.863.863q-.3.556-.3 1.304h-1.509q0-1.15.531-2.02a3.7 3.7 0 0 1 1.444-1.355q.92-.486 2.065-.486 1.15 0 2.039.486a3.66 3.66 0 0 1 1.393 1.31q.505.825.505 1.835 0 .722-.262 1.412-.255.684-.895 1.528-.633.837-1.757 2.046l-2.941 3.145v.102h6.085v1.406zm10.898 0v-1.151l4.321-4.73q.76-.83 1.253-1.444.492-.62.729-1.164.243-.55.243-1.15 0-.69-.333-1.195a2.15 2.15 0 0 0-.894-.78 2.9 2.9 0 0 0-1.279-.275q-.755 0-1.317.313-.555.307-.863.863-.3.556-.3 1.304h-1.509q0-1.15.531-2.02a3.7 3.7 0 0 1 1.445-1.355q.92-.486 2.064-.486 1.15 0 2.039.486a3.66 3.66 0 0 1 1.394 1.31q.505.825.505 1.835 0 .722-.262 1.412-.256.684-.895 1.528-.633.837-1.758 2.046l-2.94 3.145v.102h6.085v1.406zm15.501-13.091v13.091h-1.585v-11.429h-.077l-3.196 2.122v-1.611l3.273-2.173z"/><path fill="#fff" stroke="gray" d="M788.286 556.328h82v77.643h-82z"/><path fill="#c8a755" d="M815.974 557.082h26.625v29.176h-26.625z"/><path stroke="#fff" d="m829.26 557.086-.049 7.453M842.599 565.036h-26.626"/><path fill="#000" d="M813.411 615.168v-1.15l4.321-4.73q.76-.831 1.253-1.445.492-.62.728-1.163.243-.55.243-1.151 0-.69-.332-1.195a2.15 2.15 0 0 0-.895-.78 2.9 2.9 0 0 0-1.278-.275q-.755 0-1.317.313a2.16 2.16 0 0 0-.863.863q-.3.557-.301 1.304h-1.508q0-1.15.53-2.02a3.7 3.7 0 0 1 1.445-1.355q.92-.485 2.065-.485 1.15 0 2.039.485a3.65 3.65 0 0 1 1.393 1.311q.505.824.505 1.834 0 .723-.262 1.413-.256.684-.895 1.528-.633.837-1.758 2.045l-2.94 3.145v.102h6.085v1.406zm10.31-2.684v-1.304l5.753-9.103h.946v2.02h-.639l-4.347 6.878v.102h7.747v1.407zm6.162 2.684v-13.091h1.509v13.091zm9.964.179q-1.445 0-2.461-.786-1.017-.792-1.554-2.295-.536-1.508-.536-3.643 0-2.122.536-3.624.545-1.509 1.56-2.301 1.023-.8 2.455-.799 1.431 0 2.448.799 1.023.792 1.559 2.301.544 1.501.544 3.624 0 2.135-.537 3.643-.537 1.503-1.553 2.295-1.017.786-2.461.786m0-1.406q1.431 0 2.224-1.381.793-1.38.793-3.937 0-1.7-.365-2.896-.357-1.195-1.035-1.821a2.29 2.29 0 0 0-1.617-.627q-1.42 0-2.218 1.4-.8 1.394-.799 3.944 0 1.7.358 2.889.357 1.19 1.029 1.809.677.62 1.63.62"/><path fill="#fff" stroke="gray" d="M789.437 167.237h82v77.643h-82z"/><path fill="#c8a755" d="M817.124 167.991h26.625v29.175h-26.625z"/><path stroke="#fff" d="m830.41 167.994-.049 7.454M843.749 175.944h-26.626"/><path fill="#000" d="M814.561 226.077v-1.151l4.321-4.73q.76-.831 1.253-1.445.492-.62.728-1.163.243-.55.243-1.151 0-.69-.332-1.195a2.17 2.17 0 0 0-.895-.78 2.9 2.9 0 0 0-1.278-.275q-.755 0-1.317.314a2.15 2.15 0 0 0-.863.863q-.3.555-.3 1.304h-1.509q0-1.151.531-2.02a3.67 3.67 0 0 1 1.444-1.355q.92-.486 2.065-.486 1.15 0 2.039.486a3.64 3.64 0 0 1 1.393 1.31 3.44 3.44 0 0 1 .505 1.834q0 .723-.262 1.413-.255.684-.895 1.528-.633.837-1.757 2.045l-2.941 3.145v.102h6.085v1.407zm10.31-2.685v-1.304l5.753-9.102h.946v2.02h-.639l-4.347 6.877v.103h7.748v1.406zm6.162 2.685v-13.091h1.509v13.091zm10.12-13.091v13.091h-1.585v-11.429h-.077l-3.196 2.122v-1.611l3.273-2.173z"/><path fill="#fff" stroke="gray" d="M623.437 167.237h82v77.643h-82z"/><path fill="#c8a755" d="M651.124 167.991h26.625v29.175h-26.625z"/><path stroke="#fff" d="m664.41 167.994-.049 7.454M677.749 175.944h-26.626"/><path fill="#000" d="M648.561 226.077v-1.151l4.321-4.73q.76-.831 1.253-1.445.492-.62.728-1.163.243-.55.243-1.151 0-.69-.332-1.195a2.17 2.17 0 0 0-.895-.78 2.9 2.9 0 0 0-1.278-.275q-.755 0-1.317.314a2.15 2.15 0 0 0-.863.863q-.3.555-.3 1.304h-1.509q0-1.151.531-2.02a3.67 3.67 0 0 1 1.444-1.355q.92-.486 2.065-.486 1.15 0 2.039.486a3.64 3.64 0 0 1 1.393 1.31 3.44 3.44 0 0 1 .505 1.834q0 .723-.262 1.413-.255.684-.895 1.528-.633.837-1.757 2.045l-2.941 3.145v.102h6.085v1.407zm10.31-2.685v-1.304l5.753-9.102h.946v2.02h-.639l-4.347 6.877v.103h7.748v1.406zm6.162 2.685v-13.091h1.509v13.091zm10.117.179q-1.266 0-2.256-.435-.984-.434-1.566-1.208a3.25 3.25 0 0 1-.627-1.809h1.611a1.9 1.9 0 0 0 .435 1.093q.384.454 1.003.703.62.249 1.375.249.844 0 1.495-.294a2.45 2.45 0 0 0 1.023-.818q.37-.524.371-1.214 0-.723-.358-1.272-.358-.556-1.048-.87-.691-.312-1.688-.313h-1.048v-1.406h1.048q.78 0 1.368-.281.594-.282.927-.793.339-.511.339-1.202 0-.665-.294-1.157a2 2 0 0 0-.831-.767q-.531-.275-1.253-.275a3.3 3.3 0 0 0-1.279.25q-.594.243-.971.709a1.84 1.84 0 0 0-.409 1.112h-1.534a3.1 3.1 0 0 1 .62-1.802q.581-.78 1.521-1.215a4.9 4.9 0 0 1 2.077-.434q1.215 0 2.084.492a3.46 3.46 0 0 1 1.336 1.285q.467.799.467 1.726 0 1.105-.582 1.885-.575.78-1.566 1.081v.102q1.24.204 1.937 1.054.697.844.697 2.091 0 1.067-.582 1.917-.576.844-1.573 1.33t-2.269.486"/><path fill="#fff" stroke="gray" d="M540.437 167.237h82v77.643h-82z"/><path fill="#c8a755" d="M568.124 167.991h26.625v29.175h-26.625z"/><path stroke="#fff" d="m581.41 167.994-.049 7.454M594.749 175.944h-26.626"/><path fill="#000" d="M565.561 226.077v-1.151l4.321-4.73q.76-.831 1.253-1.445.492-.62.728-1.163.243-.55.243-1.151 0-.69-.332-1.195a2.17 2.17 0 0 0-.895-.78 2.9 2.9 0 0 0-1.278-.275q-.755 0-1.317.314a2.15 2.15 0 0 0-.863.863q-.3.555-.3 1.304h-1.509q0-1.151.531-2.02a3.67 3.67 0 0 1 1.444-1.355q.92-.486 2.065-.486 1.15 0 2.039.486a3.64 3.64 0 0 1 1.393 1.31 3.44 3.44 0 0 1 .505 1.834q0 .723-.262 1.413-.255.684-.895 1.528-.633.837-1.757 2.045l-2.941 3.145v.102h6.085v1.407zm10.31-2.685v-1.304l5.753-9.102h.946v2.02h-.639l-4.347 6.877v.103h7.748v1.406zm6.162 2.685v-13.091h1.509v13.091zm5.387-2.685v-1.304l5.753-9.102h.946v2.02h-.639l-4.347 6.877v.103h7.747v1.406zm6.162 2.685v-13.091h1.509v13.091z"/><path fill="#fff" stroke="gray" d="M457.437 167.237h82v77.643h-82z"/><path fill="#c8a755" d="M485.124 167.991h26.625v29.175h-26.625z"/><path stroke="#fff" d="m498.41 167.994-.049 7.454M511.749 175.944h-26.626"/><path fill="#000" d="M482.561 226.077v-1.151l4.321-4.73q.76-.831 1.253-1.445.492-.62.728-1.163.243-.55.243-1.151 0-.69-.332-1.195a2.17 2.17 0 0 0-.895-.78 2.9 2.9 0 0 0-1.278-.275q-.755 0-1.317.314a2.15 2.15 0 0 0-.863.863q-.3.555-.3 1.304h-1.509q0-1.151.531-2.02a3.67 3.67 0 0 1 1.444-1.355q.92-.486 2.065-.486 1.15 0 2.039.486a3.64 3.64 0 0 1 1.393 1.31 3.44 3.44 0 0 1 .505 1.834q0 .723-.262 1.413-.255.684-.895 1.528-.632.837-1.757 2.045l-2.941 3.145v.102h6.085v1.407zm10.31-2.685v-1.304l5.753-9.102h.946v2.02h-.639l-4.347 6.877v.103h7.748v1.406zm6.162 2.685v-13.091h1.509v13.091zm9.785.179q-1.125 0-2.026-.448a3.76 3.76 0 0 1-1.445-1.227 3.34 3.34 0 0 1-.594-1.777h1.534q.089.888.805 1.47.723.575 1.726.575.805 0 1.432-.377a2.65 2.65 0 0 0 .99-1.035q.365-.665.365-1.502 0-.857-.377-1.528a2.77 2.77 0 0 0-1.023-1.068 2.9 2.9 0 0 0-1.489-.396 4.1 4.1 0 0 0-1.234.186q-.633.185-1.042.479l-1.483-.179.793-6.443h6.801v1.406h-5.472l-.46 3.861h.077q.402-.32 1.01-.531.606-.21 1.265-.211 1.202 0 2.142.576.946.569 1.483 1.559.543.991.543 2.263 0 1.253-.563 2.237a4.1 4.1 0 0 1-1.534 1.547q-.978.563-2.224.563"/><path fill="#fff" stroke="gray" d="M374.436 167.237h82v77.643h-82z"/><path fill="#c8a755" d="M402.124 167.991h26.625v29.175h-26.625z"/><path stroke="#fff" d="m415.41 167.994-.049 7.454M428.749 175.944h-26.626"/><path fill="#000" d="M399.561 226.077v-1.151l4.321-4.73q.76-.831 1.253-1.445.492-.62.728-1.163.243-.55.243-1.151 0-.69-.332-1.195a2.17 2.17 0 0 0-.895-.78 2.9 2.9 0 0 0-1.278-.275q-.755 0-1.317.314a2.15 2.15 0 0 0-.863.863q-.3.555-.301 1.304h-1.508q0-1.151.53-2.02a3.7 3.7 0 0 1 1.445-1.355q.92-.486 2.065-.486 1.15 0 2.039.486a3.64 3.64 0 0 1 1.393 1.31 3.44 3.44 0 0 1 .505 1.834q0 .723-.262 1.413-.255.684-.895 1.528-.633.837-1.758 2.045l-2.94 3.145v.102h6.085v1.407zm10.31-2.685v-1.304l5.753-9.102h.946v2.02h-.639l-4.347 6.877v.103h7.747v1.406zm6.162 2.685v-13.091h1.509v13.091zm10.04.179a4.9 4.9 0 0 1-1.61-.307q-.805-.294-1.471-.991-.665-.703-1.067-1.898-.402-1.202-.403-3.017 0-1.74.326-3.081.327-1.35.946-2.27.62-.926 1.496-1.406.882-.479 1.988-.479 1.1 0 1.956.441a3.7 3.7 0 0 1 1.406 1.214q.543.78.703 1.796h-1.559a2.9 2.9 0 0 0-.844-1.463q-.627-.582-1.662-.582-1.521 0-2.397 1.323-.87 1.323-.876 3.714h.102a3.87 3.87 0 0 1 1.95-1.528q.601-.21 1.272-.211 1.125 0 2.058.563a4.16 4.16 0 0 1 1.496 1.54q.563.978.563 2.244a4.6 4.6 0 0 1-.544 2.224 4.14 4.14 0 0 1-1.527 1.598q-.978.588-2.302.576m0-1.407q.806 0 1.445-.402.645-.403 1.016-1.081.377-.677.377-1.508 0-.811-.364-1.477a2.8 2.8 0 0 0-.991-1.067 2.6 2.6 0 0 0-1.431-.396q-.607 0-1.132.242a2.9 2.9 0 0 0-.92.652q-.39.416-.614.953a2.85 2.85 0 0 0-.224 1.118q0 .78.365 1.458.37.678 1.01 1.093.645.415 1.463.415"/><path fill="#fff" stroke="gray" d="M291.436 167.237h82v77.643h-82z"/><path fill="#c8a755" d="M319.124 167.991h26.625v29.175h-26.625z"/><path stroke="#fff" d="m332.41 167.994-.049 7.454M345.749 175.944h-26.626"/><path fill="#000" d="M316.561 226.077v-1.151l4.321-4.73q.76-.831 1.253-1.445.492-.62.728-1.163.243-.55.243-1.151 0-.69-.332-1.195a2.17 2.17 0 0 0-.895-.78 2.9 2.9 0 0 0-1.278-.275q-.755 0-1.317.314a2.15 2.15 0 0 0-.863.863q-.3.555-.301 1.304h-1.508q0-1.151.53-2.02a3.7 3.7 0 0 1 1.445-1.355q.92-.486 2.065-.486 1.15 0 2.039.486a3.64 3.64 0 0 1 1.393 1.31 3.44 3.44 0 0 1 .505 1.834q0 .723-.262 1.413-.255.684-.895 1.528-.633.837-1.758 2.045l-2.94 3.145v.102h6.085v1.407zm10.31-2.685v-1.304l5.753-9.102h.946v2.02h-.639l-4.347 6.877v.103h7.747v1.406zm6.162 2.685v-13.091h1.509v13.091zm6.103 0 5.855-11.583v-.102h-6.75v-1.406h8.386v1.483l-5.829 11.608z"/><path fill="#fff" stroke="gray" d="M208.436 167.237h82v77.643h-82z"/><path fill="#c8a755" d="M236.124 167.991h26.625v29.175h-26.625z"/><path stroke="#fff" d="m249.41 167.994-.049 7.454M262.749 175.944h-26.626"/><path fill="#000" d="M233.561 226.077v-1.151l4.321-4.73q.76-.831 1.253-1.445.492-.62.728-1.163.243-.55.243-1.151 0-.69-.332-1.195a2.17 2.17 0 0 0-.895-.78 2.9 2.9 0 0 0-1.278-.275q-.754 0-1.317.314a2.15 2.15 0 0 0-.863.863q-.3.555-.301 1.304h-1.508q0-1.151.53-2.02a3.7 3.7 0 0 1 1.445-1.355q.92-.486 2.065-.486 1.15 0 2.039.486a3.64 3.64 0 0 1 1.393 1.31 3.44 3.44 0 0 1 .505 1.834q0 .723-.262 1.413-.255.684-.895 1.528-.633.837-1.758 2.045l-2.94 3.145v.102h6.085v1.407zm10.31-2.685v-1.304l5.753-9.102h.946v2.02h-.639l-4.347 6.877v.103h7.747v1.406zm6.162 2.685v-13.091h1.509v13.091zm9.887.179q-1.317 0-2.327-.467-1.003-.473-1.566-1.298a3.26 3.26 0 0 1-.556-1.892 3.5 3.5 0 0 1 .326-1.534q.333-.71.908-1.182.582-.48 1.297-.607v-.077a2.53 2.53 0 0 1-1.495-1.055 3.2 3.2 0 0 1-.55-1.86 3.16 3.16 0 0 1 .505-1.783q.512-.786 1.406-1.24.901-.454 2.052-.454 1.138 0 2.033.454a3.56 3.56 0 0 1 1.406 1.24q.518.786.524 1.783a3.24 3.24 0 0 1-.569 1.86 2.53 2.53 0 0 1-1.476 1.055v.077q.71.127 1.278.607.569.472.908 1.182.339.703.345 1.534a3.3 3.3 0 0 1-.575 1.892q-.562.825-1.566 1.298-.997.467-2.308.467m0-1.407q.888 0 1.534-.287.646-.288.997-.812.352-.524.358-1.227a2.36 2.36 0 0 0-.383-1.311 2.6 2.6 0 0 0-1.029-.895q-.646-.326-1.477-.326-.837 0-1.496.326a2.6 2.6 0 0 0-1.029.895q-.37.57-.364 1.311-.007.703.339 1.227.35.524 1.003.812.652.287 1.547.287m0-6.213q.703 0 1.246-.281.55-.28.863-.786.314-.505.32-1.183-.007-.665-.313-1.157a2.04 2.04 0 0 0-.85-.767q-.544-.275-1.266-.275-.735 0-1.285.275-.55.269-.85.767-.3.492-.294 1.157-.006.678.3 1.183.314.505.863.786.55.281 1.266.281"/><path fill="#fff" stroke="gray" d="M125.436 167.237h82v77.643h-82z"/><path fill="#c8a755" d="M153.124 167.991h26.625v29.175h-26.625z"/><path stroke="#fff" d="m166.41 167.994-.049 7.454M179.749 175.944h-26.626"/><path fill="#000" d="M150.561 226.077v-1.151l4.321-4.73q.76-.831 1.253-1.445.492-.62.728-1.163.243-.55.243-1.151 0-.69-.332-1.195a2.17 2.17 0 0 0-.895-.78 2.9 2.9 0 0 0-1.278-.275q-.755 0-1.317.314a2.15 2.15 0 0 0-.863.863q-.3.555-.301 1.304h-1.508q0-1.151.53-2.02a3.7 3.7 0 0 1 1.445-1.355q.92-.486 2.065-.486 1.15 0 2.039.486a3.64 3.64 0 0 1 1.393 1.31 3.44 3.44 0 0 1 .505 1.834q0 .723-.262 1.413-.255.684-.895 1.528-.633.837-1.758 2.045l-2.94 3.145v.102h6.085v1.407zm10.31-2.685v-1.304l5.753-9.102h.946v2.02h-.639l-4.347 6.877v.103h7.747v1.406zm6.162 2.685v-13.091h1.509v13.091zm9.861-13.27a4.7 4.7 0 0 1 1.611.307q.805.3 1.47.997.665.69 1.068 1.885.402 1.196.403 2.998 0 1.746-.333 3.1-.325 1.35-.946 2.276-.614.927-1.496 1.406-.875.48-1.981.48-1.1 0-1.962-.435a3.86 3.86 0 0 1-1.407-1.221 4.25 4.25 0 0 1-.696-1.822h1.559q.211.902.838 1.49.632.582 1.668.581 1.515 0 2.391-1.323.882-1.323.882-3.739h-.103a4 4 0 0 1-.85.927q-.492.39-1.093.601-.6.21-1.278.211a4 4 0 0 1-2.065-.557 4.2 4.2 0 0 1-1.496-1.54q-.555-.984-.556-2.25 0-1.201.537-2.199a4.15 4.15 0 0 1 1.522-1.598q.984-.594 2.313-.575m0 1.406q-.805 0-1.451.403a2.9 2.9 0 0 0-1.016 1.074 3 3 0 0 0-.371 1.489q0 .818.358 1.489.364.665.991 1.061.633.39 1.438.39.607 0 1.132-.236a2.9 2.9 0 0 0 .914-.659q.396-.421.62-.952.223-.537.223-1.119 0-.766-.37-1.438a2.95 2.95 0 0 0-1.01-1.086 2.6 2.6 0 0 0-1.458-.416"/><path fill="#fff" stroke="gray" d="M42.436 167.237h82v77.643h-82z"/><path fill="#c8a755" d="M70.124 167.991h26.625v29.175H70.124z"/><path stroke="#fff" d="m83.41 167.994-.049 7.454M96.749 175.944H70.123"/><path fill="#000" d="M67.56 226.077v-1.151l4.322-4.73q.76-.831 1.253-1.445.491-.62.728-1.163.243-.55.243-1.151 0-.69-.332-1.195a2.17 2.17 0 0 0-.895-.78 2.9 2.9 0 0 0-1.278-.275q-.754 0-1.317.314-.556.306-.863.863-.3.555-.3 1.304h-1.51q0-1.151.531-2.02a3.7 3.7 0 0 1 1.445-1.355q.92-.486 2.065-.486 1.15 0 2.039.486.888.485 1.393 1.31t.505 1.834q0 .723-.262 1.413-.256.684-.895 1.528-.633.837-1.758 2.045l-2.94 3.145v.102h6.085v1.407zm14.99.179q-1.125 0-2.026-.448a3.76 3.76 0 0 1-1.445-1.227 3.34 3.34 0 0 1-.594-1.777h1.534q.09.888.805 1.47.723.575 1.726.575.805 0 1.432-.377.633-.376.99-1.035.365-.665.365-1.502 0-.857-.377-1.528a2.77 2.77 0 0 0-1.023-1.068 2.9 2.9 0 0 0-1.49-.396q-.6-.006-1.233.186-.633.185-1.042.479l-1.483-.179.793-6.443h6.801v1.406h-5.472l-.46 3.861h.077q.403-.32 1.01-.531.608-.21 1.266-.211 1.201 0 2.14.576.948.569 1.484 1.559.543.991.543 2.263 0 1.253-.562 2.237a4.1 4.1 0 0 1-1.534 1.547q-.978.563-2.225.563m11.13 0q-1.444 0-2.46-.787-1.017-.792-1.554-2.294-.537-1.508-.537-3.644 0-2.123.537-3.624.543-1.509 1.56-2.301 1.023-.8 2.454-.799 1.432 0 2.448.799 1.023.792 1.56 2.301.543 1.501.543 3.624 0 2.136-.536 3.644-.537 1.502-1.554 2.294-1.016.787-2.46.787m0-1.407q1.432 0 2.225-1.38.792-1.381.792-3.938 0-1.7-.364-2.895-.359-1.195-1.035-1.822a2.29 2.29 0 0 0-1.618-.627q-1.419 0-2.218 1.4-.798 1.394-.799 3.944 0 1.701.358 2.889.358 1.19 1.03 1.809.676.62 1.63.62"/><path fill="#fff" stroke="gray" d="M208.436 1.243h82v77.643h-82z"/><path fill="#c8a755" d="M253.058 1.997h12.887v29.175h-12.887z"/><path stroke="#fff" d="M265.944 9.951h-12.887"/><path fill="#c8a755" d="M231.778 1.997h12.887v29.175h-12.887z"/><path stroke="#fff" d="M244.665 9.951h-12.887"/><path fill="#000" d="M233.133 61.52v-1.15l4.321-4.73q.76-.832 1.253-1.446.492-.619.729-1.163a2.8 2.8 0 0 0 .242-1.15q0-.691-.332-1.196a2.16 2.16 0 0 0-.895-.78 2.9 2.9 0 0 0-1.278-.274q-.755 0-1.317.313a2.16 2.16 0 0 0-.863.863q-.3.555-.3 1.304h-1.509q0-1.15.531-2.02a3.7 3.7 0 0 1 1.444-1.355q.92-.486 2.065-.486 1.15 0 2.039.486a3.65 3.65 0 0 1 1.393 1.31 3.44 3.44 0 0 1 .505 1.835q0 .722-.262 1.412-.255.684-.895 1.528-.632.837-1.757 2.045l-2.941 3.145v.103h6.085v1.406zm15.168.179q-1.444 0-2.461-.786-1.016-.794-1.553-2.295-.537-1.509-.537-3.644 0-2.121.537-3.624.543-1.509 1.56-2.301 1.023-.8 2.454-.8 1.433 0 2.448.8 1.023.792 1.56 2.301.543 1.503.543 3.624 0 2.135-.537 3.644-.536 1.501-1.553 2.295-1.016.786-2.461.786m0-1.407q1.432 0 2.225-1.38.792-1.38.792-3.938 0-1.7-.364-2.895-.358-1.195-1.036-1.822a2.28 2.28 0 0 0-1.617-.626q-1.419 0-2.218 1.4-.798 1.392-.799 3.943 0 1.7.358 2.89.359 1.188 1.029 1.809.678.62 1.63.62m11.404 1.407q-1.266 0-2.257-.435-.984-.434-1.566-1.208a3.25 3.25 0 0 1-.626-1.809h1.611q.051.633.434 1.093.383.454 1.004.703.62.25 1.374.25.844 0 1.496-.294a2.46 2.46 0 0 0 1.023-.819q.37-.524.37-1.214 0-.723-.358-1.272-.358-.555-1.048-.87-.69-.312-1.687-.313h-1.049v-1.406h1.049q.779 0 1.367-.281a2.2 2.2 0 0 0 .927-.793q.339-.51.339-1.201 0-.666-.294-1.157a2 2 0 0 0-.831-.767q-.53-.275-1.253-.275a3.3 3.3 0 0 0-1.278.249q-.594.243-.972.71a1.85 1.85 0 0 0-.409 1.112h-1.534q.039-1.029.62-1.803.582-.78 1.521-1.214a4.9 4.9 0 0 1 2.078-.435q1.214 0 2.084.492a3.5 3.5 0 0 1 1.336 1.285q.466.8.466 1.726 0 1.105-.581 1.885-.576.78-1.567 1.08v.103q1.24.204 1.937 1.055.697.843.697 2.09 0 1.067-.582 1.917-.575.844-1.572 1.33t-2.269.486"/><path fill="#fff" stroke="gray" d="M374.436 1.243h82v77.643h-82z"/><path fill="#c8a755" d="M419.058 1.997h12.887v29.175h-12.887z"/><path stroke="#fff" d="M431.944 9.951h-12.887"/><path fill="#c8a755" d="M397.778 1.997h12.887v29.175h-12.887z"/><path stroke="#fff" d="M410.665 9.951h-12.887"/><path fill="#000" d="M399.133 61.52v-1.15l4.321-4.73q.76-.832 1.253-1.446.492-.619.729-1.163a2.8 2.8 0 0 0 .242-1.15q0-.691-.332-1.196a2.16 2.16 0 0 0-.895-.78 2.9 2.9 0 0 0-1.278-.274q-.755 0-1.317.313a2.16 2.16 0 0 0-.863.863q-.3.555-.3 1.304h-1.509q0-1.15.531-2.02a3.7 3.7 0 0 1 1.444-1.355q.92-.486 2.065-.486 1.15 0 2.039.486a3.65 3.65 0 0 1 1.393 1.31 3.44 3.44 0 0 1 .505 1.835q0 .722-.262 1.412-.255.684-.895 1.528-.632.837-1.757 2.045l-2.941 3.145v.103h6.085v1.406zm15.168.179q-1.444 0-2.461-.786-1.016-.794-1.553-2.295-.537-1.509-.537-3.644 0-2.121.537-3.624.543-1.509 1.56-2.301 1.023-.8 2.454-.8 1.433 0 2.448.8 1.023.792 1.56 2.301.543 1.503.543 3.624 0 2.135-.537 3.644-.536 1.501-1.553 2.295-1.016.786-2.461.786m0-1.407q1.432 0 2.225-1.38.792-1.38.792-3.938 0-1.7-.364-2.895-.358-1.195-1.036-1.822a2.28 2.28 0 0 0-1.617-.626q-1.419 0-2.218 1.4-.798 1.392-.799 3.943 0 1.7.358 2.89.358 1.188 1.029 1.809.678.62 1.63.62m11.071 1.407q-1.125 0-2.026-.448a3.8 3.8 0 0 1-1.445-1.227 3.34 3.34 0 0 1-.594-1.777h1.534q.09.889.805 1.47.723.575 1.726.575.805 0 1.432-.377.633-.377.991-1.035.364-.665.364-1.502 0-.856-.377-1.528a2.77 2.77 0 0 0-1.023-1.067 2.9 2.9 0 0 0-1.489-.397 4.1 4.1 0 0 0-1.234.186q-.633.184-1.042.48l-1.483-.18.793-6.443h6.801v1.406h-5.471l-.461 3.86h.077a3.4 3.4 0 0 1 1.01-.53q.607-.21 1.266-.21 1.202 0 2.141.575.946.569 1.483 1.56.543.99.543 2.262 0 1.253-.562 2.237a4.1 4.1 0 0 1-1.534 1.547q-.978.563-2.225.563"/><path fill="#fff" stroke="gray" d="M706.436 1.243h82v77.643h-82z"/><path fill="#c8a755" d="M751.058 1.997h12.887v29.175h-12.887z"/><path stroke="#fff" d="M763.945 9.951h-12.888"/><path fill="#c8a755" d="M729.779 1.997h12.887v29.175h-12.887z"/><path stroke="#fff" d="M742.665 9.951h-12.887"/><path fill="#000" d="M732.133 61.52v-1.15l4.321-4.73q.76-.832 1.253-1.446.492-.619.729-1.163.243-.55.243-1.15 0-.691-.333-1.196a2.15 2.15 0 0 0-.895-.78 2.9 2.9 0 0 0-1.278-.274q-.755 0-1.317.313a2.16 2.16 0 0 0-.863.863q-.3.555-.3 1.304h-1.509q0-1.15.531-2.02a3.7 3.7 0 0 1 1.444-1.355q.92-.486 2.065-.486 1.15 0 2.039.486a3.66 3.66 0 0 1 1.394 1.31 3.45 3.45 0 0 1 .505 1.835q0 .722-.262 1.412-.256.684-.895 1.528-.633.837-1.758 2.045l-2.941 3.145v.103h6.086v1.406zm15.169.179q-1.446 0-2.461-.786-1.017-.794-1.554-2.295-.537-1.509-.537-3.644 0-2.121.537-3.624.544-1.509 1.56-2.301 1.023-.8 2.455-.8 1.431 0 2.448.8 1.022.792 1.559 2.301.544 1.503.544 3.624 0 2.135-.537 3.644-.537 1.501-1.554 2.295-1.015.786-2.46.786m0-1.407q1.432 0 2.224-1.38t.793-3.938q0-1.7-.365-2.895-.358-1.195-1.035-1.822a2.29 2.29 0 0 0-1.617-.626q-1.42 0-2.219 1.4-.799 1.392-.799 3.943 0 1.7.358 2.89.358 1.188 1.03 1.809.677.62 1.63.62m11.147-12.042a4.7 4.7 0 0 1 1.611.307q.806.3 1.47.997.665.69 1.068 1.886.402 1.195.402 2.997 0 1.746-.332 3.1-.326 1.35-.946 2.276-.614.927-1.496 1.406-.876.48-1.981.48-1.1 0-1.963-.435a3.86 3.86 0 0 1-1.406-1.22 4.3 4.3 0 0 1-.697-1.822h1.56a2.9 2.9 0 0 0 .837 1.489q.633.581 1.669.581 1.515 0 2.39-1.323.882-1.323.882-3.739h-.102a4 4 0 0 1-.85.927q-.492.39-1.093.6-.601.212-1.278.212a4 4 0 0 1-2.065-.556 4.2 4.2 0 0 1-1.496-1.54q-.556-.985-.556-2.25 0-1.203.537-2.2a4.15 4.15 0 0 1 1.521-1.598q.985-.594 2.314-.575m0 1.406q-.805 0-1.451.403a2.9 2.9 0 0 0-1.016 1.074 3.03 3.03 0 0 0-.371 1.49q0 .817.358 1.488.364.665.991 1.062.633.39 1.438.39.607 0 1.131-.237.525-.243.915-.659.396-.42.62-.952.223-.536.223-1.119 0-.765-.37-1.438a2.95 2.95 0 0 0-1.01-1.086 2.6 2.6 0 0 0-1.458-.416"/><path fill="#fff" stroke="gray" d="M706.437 713.614h82v77.643h-82z"/><path fill="#c8a755" d="M751.058 714.368h12.887v29.175h-12.887z"/><path stroke="#fff" d="M763.945 722.322h-12.888"/><path fill="#c8a755" d="M729.779 714.368h12.887v29.175h-12.887z"/><path stroke="#fff" d="M742.665 722.322h-12.887"/><path fill="#000" d="M733.362 773.891v-1.151l4.321-4.73q.76-.831 1.253-1.445.492-.62.729-1.163a2.8 2.8 0 0 0 .242-1.151q0-.69-.332-1.195a2.16 2.16 0 0 0-.895-.78 2.9 2.9 0 0 0-1.278-.275q-.755 0-1.317.314a2.15 2.15 0 0 0-.863.863q-.3.555-.3 1.304h-1.509q0-1.152.531-2.02a3.67 3.67 0 0 1 1.444-1.355q.92-.486 2.065-.486 1.15 0 2.039.486a3.64 3.64 0 0 1 1.393 1.31 3.44 3.44 0 0 1 .505 1.834q0 .723-.262 1.413-.255.684-.895 1.528-.632.837-1.757 2.045l-2.941 3.145v.102h6.085v1.407zm10.898 0v-1.151l4.321-4.73q.761-.831 1.253-1.445.492-.62.729-1.163.243-.55.243-1.151 0-.69-.333-1.195a2.16 2.16 0 0 0-.894-.78 2.9 2.9 0 0 0-1.279-.275q-.755 0-1.317.314-.555.306-.863.863-.3.555-.3 1.304h-1.508q0-1.152.53-2.02a3.7 3.7 0 0 1 1.445-1.355q.92-.486 2.064-.486 1.15 0 2.039.486.889.485 1.394 1.31t.505 1.834q0 .723-.262 1.413-.256.684-.895 1.528-.633.837-1.758 2.045l-2.94 3.145v.102h6.085v1.407zm10.899 0v-1.151l4.321-4.73q.76-.831 1.253-1.445.492-.62.728-1.163.243-.55.243-1.151 0-.69-.332-1.195a2.16 2.16 0 0 0-.895-.78 2.9 2.9 0 0 0-1.278-.275q-.755 0-1.317.314a2.15 2.15 0 0 0-.863.863q-.3.555-.301 1.304h-1.508q0-1.152.531-2.02a3.67 3.67 0 0 1 1.444-1.355q.92-.486 2.065-.486 1.15 0 2.039.486a3.64 3.64 0 0 1 1.393 1.31 3.44 3.44 0 0 1 .505 1.834q0 .723-.262 1.413-.256.684-.895 1.528-.633.837-1.758 2.045l-2.94 3.145v.102h6.085v1.407z"/><path fill="#fff" stroke="gray" d="M705.286 556.328h82v77.643h-82z"/><path fill="#c8a755" d="M749.908 557.082h12.887v29.176h-12.887z"/><path stroke="#fff" d="M762.795 565.036h-12.888"/><path fill="#c8a755" d="M728.629 557.082h12.886v29.176h-12.886z"/><path stroke="#fff" d="M741.515 565.036h-12.887"/><path fill="#000" d="M732.212 616.605v-1.151l4.321-4.73q.76-.83 1.253-1.444.492-.62.728-1.164.243-.55.243-1.15 0-.69-.332-1.196a2.16 2.16 0 0 0-.895-.779 2.9 2.9 0 0 0-1.278-.275q-.755 0-1.317.313a2.15 2.15 0 0 0-.863.863q-.3.556-.301 1.304h-1.508q0-1.15.53-2.02a3.7 3.7 0 0 1 1.445-1.355q.92-.486 2.065-.486 1.15 0 2.039.486a3.66 3.66 0 0 1 1.393 1.31q.505.825.505 1.835 0 .722-.262 1.412-.256.685-.895 1.528-.633.837-1.758 2.046l-2.94 3.144v.103h6.085v1.406zm15.322.179q-1.266 0-2.257-.435-.984-.434-1.566-1.208a3.25 3.25 0 0 1-.626-1.809h1.61q.052.634.435 1.093.383.454 1.004.703.62.25 1.374.25.843 0 1.496-.294a2.46 2.46 0 0 0 1.022-.818q.372-.525.371-1.215 0-.723-.358-1.272-.358-.556-1.048-.869-.69-.314-1.688-.314h-1.048v-1.406h1.048q.78 0 1.368-.281.596-.282.927-.793.339-.511.339-1.201 0-.665-.294-1.157a2 2 0 0 0-.831-.767q-.53-.275-1.253-.275a3.3 3.3 0 0 0-1.278.249q-.595.243-.972.71a1.85 1.85 0 0 0-.409 1.112h-1.534a3.1 3.1 0 0 1 .62-1.803q.582-.78 1.521-1.214a4.9 4.9 0 0 1 2.078-.435q1.214 0 2.083.492a3.46 3.46 0 0 1 1.336 1.285q.467.8.467 1.726 0 1.106-.582 1.886-.574.78-1.566 1.08v.102q1.24.205 1.937 1.055.697.843.697 2.09 0 1.068-.582 1.918-.575.843-1.572 1.329t-2.269.486m11.205-13.449a4.7 4.7 0 0 1 1.611.307q.806.3 1.47.997.665.69 1.067 1.886.403 1.195.403 2.998 0 1.744-.332 3.1-.327 1.348-.946 2.275-.614.927-1.496 1.407-.876.479-1.982.479-1.1 0-1.962-.435a3.85 3.85 0 0 1-1.406-1.221 4.24 4.24 0 0 1-.697-1.821h1.56q.21.901.837 1.489.633.582 1.668.582 1.515 0 2.391-1.323.882-1.324.882-3.74h-.102a4 4 0 0 1-.85.927 3.77 3.77 0 0 1-2.372.812 4 4 0 0 1-2.065-.556 4.2 4.2 0 0 1-1.495-1.541q-.556-.984-.556-2.25 0-1.202.537-2.199a4.16 4.16 0 0 1 1.521-1.598q.984-.594 2.314-.575m0 1.406q-.806 0-1.451.403a2.9 2.9 0 0 0-1.017 1.074q-.37.671-.37 1.489t.358 1.49q.365.665.99 1.061.633.39 1.439.39.607 0 1.131-.237.524-.243.914-.658.396-.423.62-.953.224-.537.224-1.118 0-.768-.371-1.438a2.94 2.94 0 0 0-1.01-1.087 2.6 2.6 0 0 0-1.457-.416"/><path fill="#fff" stroke="gray" d="M706.437 167.237h82v77.643h-82z"/><path fill="#c8a755" d="M751.058 167.991h12.887v29.175h-12.887z"/><path stroke="#fff" d="M763.945 175.944h-12.888"/><path fill="#c8a755" d="M729.779 167.991h12.887v29.175h-12.887z"/><path stroke="#fff" d="M742.665 175.944h-12.887"/><path fill="#000" d="M733.362 227.513v-1.15l4.321-4.73q.76-.831 1.253-1.445.492-.62.729-1.163.242-.55.242-1.151 0-.69-.332-1.195a2.15 2.15 0 0 0-.895-.78 2.9 2.9 0 0 0-1.278-.275q-.755 0-1.317.313a2.16 2.16 0 0 0-.863.863q-.3.557-.3 1.304h-1.509q0-1.15.531-2.02a3.7 3.7 0 0 1 1.444-1.355q.92-.486 2.065-.486 1.15 0 2.039.486a3.65 3.65 0 0 1 1.393 1.311q.505.824.505 1.834 0 .723-.262 1.413-.255.684-.895 1.527-.632.838-1.757 2.046l-2.941 3.145v.102h6.085v1.406zm10.31-2.684v-1.304l5.753-9.103h.946v2.02h-.639l-4.347 6.878v.102h7.748v1.407zm6.162 2.684v-13.091h1.509v13.091zm5.694 0v-1.15l4.321-4.73q.76-.831 1.253-1.445.492-.62.729-1.163.242-.55.242-1.151 0-.69-.332-1.195a2.15 2.15 0 0 0-.895-.78 2.9 2.9 0 0 0-1.278-.275q-.755 0-1.317.313a2.16 2.16 0 0 0-.863.863q-.3.557-.3 1.304h-1.509q0-1.15.531-2.02a3.7 3.7 0 0 1 1.444-1.355q.92-.486 2.065-.486 1.15 0 2.039.486a3.65 3.65 0 0 1 1.393 1.311q.505.824.505 1.834 0 .723-.262 1.413-.255.684-.895 1.527-.632.838-1.757 2.046l-2.941 3.145v.102h6.085v1.406z"/><path fill="#fff" stroke="gray" d="M457.437 713.614h82v77.643h-82z"/><path fill="#c8a755" d="M502.058 714.368h12.887v29.175h-12.887z"/><path stroke="#fff" d="M514.945 722.322h-12.888"/><path fill="#c8a755" d="M480.779 714.368h12.887v29.175h-12.887z"/><path stroke="#fff" d="M493.665 722.322h-12.887"/><path fill="#000" d="M484.362 773.891v-1.151l4.321-4.73q.76-.831 1.253-1.445.492-.62.729-1.163a2.8 2.8 0 0 0 .242-1.151q0-.69-.332-1.195a2.16 2.16 0 0 0-.895-.78 2.9 2.9 0 0 0-1.278-.275q-.755 0-1.317.314a2.15 2.15 0 0 0-.863.863q-.3.555-.3 1.304h-1.509q0-1.152.531-2.02a3.67 3.67 0 0 1 1.444-1.355q.92-.486 2.065-.486 1.15 0 2.039.486a3.64 3.64 0 0 1 1.393 1.31 3.44 3.44 0 0 1 .505 1.834q0 .723-.262 1.413-.255.684-.895 1.528-.632.837-1.757 2.045l-2.941 3.145v.102h6.085v1.407zm10.898 0v-1.151l4.321-4.73q.761-.831 1.253-1.445.492-.62.729-1.163.243-.55.243-1.151 0-.69-.333-1.195a2.16 2.16 0 0 0-.894-.78 2.9 2.9 0 0 0-1.279-.275q-.754 0-1.317.314-.555.306-.863.863-.3.555-.3 1.304h-1.508q0-1.152.53-2.02a3.7 3.7 0 0 1 1.445-1.355q.92-.486 2.064-.486 1.15 0 2.039.486.889.485 1.394 1.31t.505 1.834q0 .723-.262 1.413-.256.684-.895 1.528-.633.837-1.758 2.045l-2.94 3.145v.102h6.085v1.407zm14.99.179q-1.125 0-2.027-.448a3.76 3.76 0 0 1-1.444-1.227 3.35 3.35 0 0 1-.595-1.777h1.534q.09.888.806 1.47.722.576 1.726.575.805 0 1.432-.377.632-.376.99-1.035.365-.665.365-1.502 0-.857-.377-1.528a2.8 2.8 0 0 0-1.023-1.068 2.9 2.9 0 0 0-1.49-.396q-.6-.006-1.233.185-.633.186-1.042.48l-1.483-.179.793-6.443h6.801v1.406h-5.472l-.46 3.861h.077q.402-.32 1.01-.531.606-.21 1.265-.211 1.202 0 2.141.576a4 4 0 0 1 1.483 1.559q.544.991.544 2.263 0 1.253-.563 2.237a4.1 4.1 0 0 1-1.534 1.547q-.978.563-2.224.563"/><path fill="#fff" stroke="gray" d="M456.861 556.328h82v77.643h-82z"/><path fill="#c8a755" d="M501.483 557.082h12.887v29.176h-12.887z"/><path stroke="#fff" d="M514.37 565.036h-12.888"/><path fill="#c8a755" d="M480.203 557.082h12.887v29.176h-12.887z"/><path stroke="#fff" d="M493.09 565.036h-12.887"/><path fill="#000" d="M483.787 616.605v-1.151l4.321-4.73a31 31 0 0 0 1.253-1.444q.492-.62.728-1.164.243-.55.243-1.15 0-.69-.332-1.196a2.16 2.16 0 0 0-.895-.779 2.9 2.9 0 0 0-1.278-.275q-.755 0-1.317.313a2.15 2.15 0 0 0-.863.863q-.3.556-.301 1.304h-1.508q0-1.15.53-2.02a3.7 3.7 0 0 1 1.445-1.355q.92-.486 2.065-.486 1.15 0 2.039.486a3.66 3.66 0 0 1 1.393 1.31q.505.825.505 1.835 0 .722-.262 1.412-.256.685-.895 1.528-.633.837-1.758 2.046l-2.94 3.144v.103h6.085v1.406zm15.321.179q-1.264 0-2.256-.435-.984-.434-1.566-1.208a3.25 3.25 0 0 1-.626-1.809h1.61q.052.634.435 1.093.383.454 1.004.703.62.25 1.374.25.843 0 1.496-.294a2.46 2.46 0 0 0 1.022-.818q.371-.525.371-1.215 0-.723-.358-1.272-.358-.556-1.048-.869-.69-.314-1.688-.314h-1.048v-1.406h1.048q.78 0 1.368-.281.596-.282.927-.793.339-.511.339-1.201 0-.665-.294-1.157a2 2 0 0 0-.831-.767q-.53-.275-1.253-.275a3.3 3.3 0 0 0-1.278.249 2.4 2.4 0 0 0-.972.71 1.85 1.85 0 0 0-.409 1.112h-1.534a3.1 3.1 0 0 1 .62-1.803q.582-.78 1.521-1.214a4.9 4.9 0 0 1 2.078-.435q1.214 0 2.083.492a3.46 3.46 0 0 1 1.336 1.285q.467.8.467 1.726 0 1.106-.582 1.886-.575.78-1.566 1.08v.102q1.24.205 1.937 1.055.697.843.697 2.09 0 1.068-.582 1.918-.575.843-1.572 1.329t-2.27.486m11.385 0a4.9 4.9 0 0 1-1.611-.307q-.805-.294-1.47-.991-.665-.702-1.068-1.898-.402-1.202-.402-3.017 0-1.739.326-3.081.325-1.349.946-2.269.62-.927 1.495-1.406.882-.48 1.988-.48 1.1 0 1.956.441.863.435 1.406 1.215.544.78.704 1.796h-1.56a2.9 2.9 0 0 0-.844-1.464q-.625-.582-1.662-.582-1.521 0-2.397 1.324-.869 1.323-.875 3.713h.102a3.85 3.85 0 0 1 1.949-1.527 3.8 3.8 0 0 1 1.272-.211q1.125 0 2.059.562.933.556 1.495 1.541.563.978.563 2.243 0 1.215-.543 2.225a4.15 4.15 0 0 1-1.528 1.598q-.978.588-2.301.575m0-1.406q.805 0 1.444-.403a2.9 2.9 0 0 0 1.017-1.08q.377-.678.377-1.509 0-.812-.365-1.476a2.77 2.77 0 0 0-.99-1.068 2.62 2.62 0 0 0-1.432-.396 2.7 2.7 0 0 0-1.132.243 2.9 2.9 0 0 0-.92.652q-.39.415-.614.952a2.9 2.9 0 0 0-.223 1.119 3.03 3.03 0 0 0 1.374 2.55q.645.416 1.464.416"/><path fill="#fff" stroke="gray" d="M125.436 713.614h82v77.643h-82z"/><path fill="#c8a755" d="M170.058 714.368h12.887v29.175h-12.887z"/><path stroke="#fff" d="M182.945 722.322h-12.888"/><path fill="#c8a755" d="M148.779 714.368h12.887v29.175h-12.887z"/><path stroke="#fff" d="M161.665 722.322h-12.887"/><path fill="#000" d="M152.362 773.891v-1.151l4.321-4.73q.76-.831 1.253-1.445.492-.62.728-1.163.243-.55.243-1.151 0-.69-.332-1.195a2.16 2.16 0 0 0-.895-.78 2.9 2.9 0 0 0-1.278-.275q-.755 0-1.317.314a2.15 2.15 0 0 0-.863.863q-.3.555-.301 1.304h-1.508q0-1.152.531-2.02a3.67 3.67 0 0 1 1.444-1.355q.92-.486 2.065-.486 1.15 0 2.039.486a3.64 3.64 0 0 1 1.393 1.31 3.44 3.44 0 0 1 .505 1.834q0 .723-.262 1.413-.255.684-.895 1.528-.633.837-1.758 2.045l-2.94 3.145v.102h6.085v1.407zm10.898 0v-1.151l4.321-4.73q.76-.831 1.253-1.445.492-.62.729-1.163.243-.55.243-1.151 0-.69-.333-1.195a2.15 2.15 0 0 0-.895-.78 2.9 2.9 0 0 0-1.278-.275q-.755 0-1.317.314-.555.306-.863.863-.3.555-.3 1.304h-1.509q0-1.152.531-2.02a3.7 3.7 0 0 1 1.445-1.355q.92-.486 2.064-.486 1.15 0 2.039.486.889.485 1.394 1.31t.505 1.834q0 .723-.262 1.413-.256.684-.895 1.528-.633.837-1.758 2.045l-2.94 3.145v.102h6.085v1.407zm15.066-13.27a4.7 4.7 0 0 1 1.611.307q.805.3 1.47.997.665.69 1.068 1.885.402 1.196.402 2.998 0 1.746-.332 3.1-.326 1.35-.946 2.276-.614.927-1.496 1.406-.876.48-1.981.48-1.1 0-1.963-.435a3.85 3.85 0 0 1-1.406-1.221 4.26 4.26 0 0 1-.697-1.822h1.56q.211.902.837 1.49.633.58 1.669.581 1.515 0 2.39-1.323.882-1.323.882-3.739h-.102a4 4 0 0 1-.85.927 3.75 3.75 0 0 1-2.371.811q-1.126 0-2.065-.556a4.2 4.2 0 0 1-1.496-1.54q-.555-.984-.556-2.25 0-1.202.537-2.199a4.15 4.15 0 0 1 1.521-1.598q.985-.594 2.314-.575m0 1.406q-.805 0-1.451.403a2.9 2.9 0 0 0-1.016 1.074 3 3 0 0 0-.371 1.489q0 .818.358 1.489.364.665.991 1.061.633.39 1.438.39.607 0 1.132-.236a2.9 2.9 0 0 0 .914-.659q.396-.421.62-.952.223-.537.223-1.119 0-.766-.37-1.438a2.95 2.95 0 0 0-1.01-1.087 2.6 2.6 0 0 0-1.458-.415"/><path fill="#fff" stroke="gray" d="M540.437 713.614h82v77.643h-82z"/><path fill="#c8a755" d="M585.058 714.368h12.887v29.175h-12.887z"/><path stroke="#fff" d="M597.945 722.322h-12.888"/><path fill="#c8a755" d="M563.779 714.368h12.887v29.175h-12.887z"/><path stroke="#fff" d="M576.665 722.322h-12.887"/><path fill="#000" d="M567.362 773.891v-1.151l4.321-4.73q.76-.831 1.253-1.445.492-.62.729-1.163a2.8 2.8 0 0 0 .242-1.151q0-.69-.332-1.195a2.16 2.16 0 0 0-.895-.78 2.9 2.9 0 0 0-1.278-.275q-.755 0-1.317.314a2.15 2.15 0 0 0-.863.863q-.3.555-.3 1.304h-1.509q0-1.152.531-2.02a3.67 3.67 0 0 1 1.444-1.355q.92-.486 2.065-.486 1.15 0 2.039.486a3.64 3.64 0 0 1 1.393 1.31 3.44 3.44 0 0 1 .505 1.834q0 .723-.262 1.413-.255.684-.895 1.528-.632.837-1.757 2.045l-2.941 3.145v.102h6.085v1.407zm10.898 0v-1.151l4.321-4.73q.761-.831 1.253-1.445.492-.62.729-1.163.243-.55.243-1.151 0-.69-.333-1.195a2.16 2.16 0 0 0-.894-.78 2.9 2.9 0 0 0-1.279-.275q-.755 0-1.317.314-.555.306-.863.863-.3.555-.3 1.304h-1.508q0-1.152.53-2.02a3.7 3.7 0 0 1 1.445-1.355q.92-.486 2.064-.486 1.15 0 2.039.486.889.485 1.394 1.31t.505 1.834q0 .723-.262 1.413-.256.684-.895 1.528-.633.837-1.758 2.045l-2.94 3.145v.102h6.085v1.407zm10.311-2.685v-1.304l5.753-9.102h.946v2.02h-.64l-4.346 6.877v.103h7.747v1.406zm6.162 2.685V760.8h1.508v13.091z"/><path fill="#fff" stroke="gray" d="M1062.27 122.754h82v77.643h-82z"/><path fill="#c8a755" d="M1089.96 123.508h26.63v29.175h-26.63z"/><path stroke="#fff" d="m1103.25 123.511-.05 7.454M1116.59 131.462h-26.63"/><path fill="#000" d="M1088.39 181.594v-1.15l4.32-4.731c.51-.553.92-1.035 1.25-1.444.33-.413.57-.801.73-1.163q.24-.55.24-1.151 0-.69-.33-1.195a2.2 2.2 0 0 0-.89-.78 2.9 2.9 0 0 0-1.28-.275c-.51 0-.94.104-1.32.313-.37.205-.66.492-.86.863q-.3.557-.3 1.304h-1.51c0-.767.18-1.44.53-2.02a3.65 3.65 0 0 1 1.44-1.355 4.4 4.4 0 0 1 2.07-.486q1.14 0 2.04.486a3.7 3.7 0 0 1 1.39 1.31q.51.825.51 1.835 0 .722-.27 1.413c-.17.456-.47.965-.89 1.527-.42.559-1.01 1.24-1.76 2.046l-2.94 3.145v.102h6.09v1.406zm15.5-13.091v13.091h-1.59v-11.429h-.07l-3.2 2.122v-1.61l3.27-2.174zm8.19 13.27c-.85 0-1.6-.145-2.26-.435-.66-.289-1.18-.692-1.57-1.208a3.23 3.23 0 0 1-.62-1.809h1.61c.03.422.18.787.43 1.093.26.303.59.537 1.01.704.41.166.87.249 1.37.249q.84 0 1.5-.294.645-.294 1.02-.818c.25-.35.37-.755.37-1.215q0-.721-.36-1.272-.36-.556-1.05-.869t-1.68-.313h-1.05v-1.407h1.05c.52 0 .97-.093 1.36-.281q.6-.281.93-.792c.23-.341.34-.742.34-1.202 0-.443-.1-.829-.29-1.157q-.3-.492-.84-.767c-.35-.183-.77-.275-1.25-.275-.45 0-.88.083-1.28.249-.39.162-.72.399-.97.71-.25.307-.39.677-.41 1.112h-1.53c.02-.686.23-1.287.62-1.803.39-.519.89-.924 1.52-1.214s1.32-.435 2.08-.435c.81 0 1.5.164 2.08.492.58.324 1.03.753 1.34 1.285.31.533.46 1.108.46 1.726 0 .737-.19 1.366-.58 1.886q-.57.78-1.56 1.08v.102c.82.137 1.47.488 1.93 1.055.47.562.7 1.259.7 2.09a3.3 3.3 0 0 1-.58 1.918 4 4 0 0 1-1.57 1.329c-.67.324-1.43.486-2.27.486"/><path fill="#fff" stroke="gray" d="M1062.27 201.397h82v77.643h-82z"/><path fill="#c8a755" d="M1089.96 202.151h26.63v29.175h-26.63z"/><path stroke="#fff" d="m1103.25 202.154-.05 7.454M1116.59 210.105h-26.63"/><path fill="#000" d="M1088.39 260.237v-1.151l4.32-4.73c.51-.554.92-1.035 1.25-1.444.33-.414.57-.801.73-1.164q.24-.55.24-1.15 0-.69-.33-1.196a2.2 2.2 0 0 0-.89-.779 2.9 2.9 0 0 0-1.28-.275c-.51 0-.94.104-1.32.313-.37.205-.66.492-.86.863q-.3.556-.3 1.304h-1.51c0-.767.18-1.44.53-2.02q.525-.87 1.44-1.355a4.4 4.4 0 0 1 2.07-.486q1.14 0 2.04.486a3.7 3.7 0 0 1 1.39 1.31q.51.825.51 1.835 0 .722-.27 1.412c-.17.456-.47.966-.89 1.528-.42.558-1.01 1.24-1.76 2.046l-2.94 3.144v.103h6.09v1.406zm15.5-13.091v13.091h-1.59v-11.429h-.07l-3.2 2.122v-1.611l3.27-2.173zm3.46 10.406v-1.304l5.75-9.102h.94v2.02h-.63l-4.35 6.878v.102h7.75v1.406zm6.16 2.685v-13.091h1.51v13.091z"/><path fill="#fff" stroke="gray" d="M1062.27 280.04h82v77.643h-82z"/><path fill="#c8a755" d="M1089.96 280.794h26.63v29.175h-26.63z"/><path stroke="#fff" d="m1103.25 280.797-.05 7.454M1116.59 288.747h-26.63"/><path fill="#000" d="M1088.39 338.88v-1.151l4.32-4.73c.51-.554.92-1.035 1.25-1.444a5.4 5.4 0 0 0 .73-1.164q.24-.55.24-1.15 0-.691-.33-1.196a2.23 2.23 0 0 0-.89-.78 2.9 2.9 0 0 0-1.28-.274c-.51 0-.94.104-1.32.313-.37.204-.66.492-.86.863q-.3.556-.3 1.304h-1.51c0-.767.18-1.441.53-2.02q.525-.87 1.44-1.355a4.4 4.4 0 0 1 2.07-.486q1.14 0 2.04.486c.59.324 1.05.76 1.39 1.31q.51.825.51 1.835 0 .722-.27 1.412c-.17.456-.47.965-.89 1.528-.42.558-1.01 1.24-1.76 2.045l-2.94 3.145v.103h6.09v1.406zm15.5-13.091v13.091h-1.59v-11.429h-.07l-3.2 2.122v-1.611l3.27-2.173zm7.85 13.27c-.75 0-1.42-.149-2.02-.448a3.77 3.77 0 0 1-1.45-1.227 3.3 3.3 0 0 1-.59-1.777h1.53q.09.888.81 1.47c.48.384 1.05.576 1.72.576q.81 0 1.44-.378.63-.376.99-1.035.36-.665.36-1.502c0-.571-.13-1.08-.38-1.528a2.67 2.67 0 0 0-1.02-1.067c-.43-.26-.93-.392-1.49-.397q-.6-.006-1.23.186c-.42.123-.77.283-1.04.479l-1.49-.179.8-6.443h6.8v1.406H1110l-.46 3.861h.08c.27-.213.61-.39 1.01-.531.41-.14.83-.211 1.27-.211.8 0 1.51.192 2.14.576a4.03 4.03 0 0 1 1.48 1.559q.54.991.54 2.263c0 .835-.18 1.581-.56 2.237a4.1 4.1 0 0 1-1.53 1.547c-.65.375-1.4.563-2.23.563"/><path fill="#fff" stroke="gray" d="M1062.27 599.196h82v77.643h-82z"/><path fill="#c8a755" d="M1089.96 599.95h26.63v29.176h-26.63z"/><path stroke="#fff" d="m1103.25 599.954-.05 7.454M1116.59 607.904h-26.63"/><path fill="#000" d="M1088.39 658.037v-1.151l4.32-4.73c.51-.554.92-1.036 1.25-1.445.33-.413.57-.801.73-1.163q.24-.55.24-1.151 0-.69-.33-1.195a2.2 2.2 0 0 0-.89-.78 2.9 2.9 0 0 0-1.28-.275c-.51 0-.94.105-1.32.314-.37.204-.66.492-.86.862q-.3.557-.3 1.304h-1.51c0-.767.18-1.44.53-2.019q.525-.87 1.44-1.356a4.4 4.4 0 0 1 2.07-.485q1.14 0 2.04.485c.59.324 1.05.761 1.39 1.311q.51.825.51 1.834 0 .723-.27 1.413c-.17.456-.47.965-.89 1.528-.42.558-1.01 1.24-1.76 2.045l-2.94 3.145v.102h6.09v1.407zm15.5-13.091v13.091h-1.59v-11.429h-.07l-3.2 2.122v-1.611l3.27-2.173zm7.96 13.27c-.88 0-1.66-.156-2.33-.467-.67-.315-1.19-.748-1.57-1.298a3.25 3.25 0 0 1-.55-1.892 3.42 3.42 0 0 1 1.23-2.716c.39-.32.82-.522 1.3-.608v-.076a2.53 2.53 0 0 1-1.5-1.055c-.37-.545-.55-1.165-.55-1.86q0-.997.51-1.783c.34-.525.81-.938 1.4-1.24.6-.303 1.29-.454 2.06-.454.75 0 1.43.151 2.03.454.6.302 1.06.715 1.4 1.24.35.524.52 1.118.53 1.783-.01.695-.19 1.315-.57 1.86-.37.541-.86.893-1.48 1.055v.076c.48.086.9.288 1.28.608.38.315.68.709.91 1.182.23.469.34.98.34 1.534q0 1.062-.57 1.892c-.38.55-.9.983-1.57 1.298-.66.311-1.43.467-2.3.467m0-1.407q.885 0 1.53-.287c.43-.192.76-.463 1-.812q.345-.525.36-1.227a2.4 2.4 0 0 0-.39-1.311 2.57 2.57 0 0 0-1.03-.895q-.645-.326-1.47-.326-.84 0-1.5.326c-.43.218-.78.516-1.03.895a2.24 2.24 0 0 0-.36 1.311c-.01.468.11.877.34 1.227.23.349.56.62 1 .812.43.191.95.287 1.55.287m0-6.213c.46 0 .88-.094 1.24-.281q.555-.282.87-.786c.2-.337.31-.731.31-1.183 0-.443-.1-.829-.31-1.157a2 2 0 0 0-.85-.767q-.54-.275-1.26-.275-.735 0-1.29.275c-.37.179-.65.435-.85.767-.2.328-.3.714-.29 1.157q-.015.678.3 1.183c.21.336.49.598.86.786.37.187.79.281 1.27.281"/><path fill="#fff" stroke="gray" d="M1062.27 677.839h82v77.643h-82z"/><path fill="#c8a755" d="M1089.96 678.593h26.63v29.176h-26.63z"/><path stroke="#fff" d="m1103.25 678.597-.05 7.453M1116.59 686.547h-26.63"/><path fill="#000" d="M1088.39 736.679v-1.15l4.32-4.73c.51-.554.92-1.036 1.25-1.445.33-.413.57-.801.73-1.163q.24-.55.24-1.151 0-.69-.33-1.195a2.2 2.2 0 0 0-.89-.78 2.9 2.9 0 0 0-1.28-.275c-.51 0-.94.105-1.32.313-.37.205-.66.493-.86.863q-.3.557-.3 1.304h-1.51c0-.767.18-1.44.53-2.02a3.65 3.65 0 0 1 1.44-1.355 4.4 4.4 0 0 1 2.07-.486q1.14 0 2.04.486c.59.324 1.05.761 1.39 1.311q.51.824.51 1.834 0 .723-.27 1.413c-.17.456-.47.965-.89 1.528-.42.558-1.01 1.24-1.76 2.045l-2.94 3.145v.102h6.09v1.406zm15.5-13.091v13.091h-1.59V725.25h-.07l-3.2 2.123v-1.611l3.27-2.174zm7.93-.179a4.7 4.7 0 0 1 1.61.307 3.9 3.9 0 0 1 1.47.997c.44.461.8 1.089 1.07 1.886s.4 1.796.4 2.998q0 1.745-.33 3.1c-.22.899-.53 1.658-.95 2.276-.41.618-.9 1.086-1.49 1.406q-.885.48-1.98.479c-.74 0-1.39-.145-1.97-.434a3.8 3.8 0 0 1-1.4-1.221c-.37-.524-.6-1.132-.7-1.822h1.56q.21.901.84 1.489c.42.388.98.582 1.67.582 1.01 0 1.8-.441 2.39-1.323.58-.882.88-2.129.88-3.739h-.1c-.24.358-.53.667-.85.926a3.8 3.8 0 0 1-2.38.812 3.97 3.97 0 0 1-2.06-.556 4.3 4.3 0 0 1-1.5-1.54c-.37-.657-.55-1.407-.55-2.25q0-1.202.54-2.199c.36-.669.86-1.202 1.52-1.598q.975-.595 2.31-.576m0 1.407c-.54 0-1.02.134-1.45.402q-.645.398-1.02 1.074a3.1 3.1 0 0 0-.37 1.49q0 .818.36 1.489.36.665.99 1.061.63.39 1.44.39c.4 0 .78-.079 1.13-.237.35-.161.65-.381.91-.658.27-.281.48-.599.62-.952.15-.358.23-.731.23-1.119 0-.511-.13-.991-.37-1.438-.25-.448-.58-.81-1.01-1.087a2.6 2.6 0 0 0-1.46-.415"/><path fill="#fff" stroke="gray" d="M1062.27 44.111h82v77.643h-82z"/><path fill="#c8a755" d="M1106.89 44.865h12.89V74.04h-12.89z"/><path stroke="#fff" d="M1119.78 52.819h-12.89"/><path fill="#c8a755" d="M1085.62 44.865h12.88V74.04h-12.88z"/><path stroke="#fff" d="M1098.5 52.819h-12.89"/><path fill="#000" d="M1089.2 104.388v-1.151l4.32-4.73c.51-.554.92-1.035 1.25-1.444.33-.414.57-.802.73-1.164q.24-.55.24-1.15 0-.69-.33-1.196a2.15 2.15 0 0 0-.89-.78 2.9 2.9 0 0 0-1.28-.274q-.75 0-1.32.313c-.37.204-.66.492-.86.863q-.3.555-.3 1.304h-1.51c0-.767.18-1.44.53-2.02s.84-1.031 1.44-1.355a4.4 4.4 0 0 1 2.07-.486q1.155 0 2.04.486c.59.324 1.06.76 1.39 1.31q.51.825.51 1.835 0 .722-.27 1.412c-.17.456-.46.966-.89 1.528-.42.558-1.01 1.24-1.76 2.046l-2.94 3.144v.103h6.09v1.406zm15.5-13.091v13.091h-1.59V92.959h-.07l-3.2 2.122v-1.61l3.27-2.174zm3.76 13.091v-1.151l4.33-4.73c.5-.554.92-1.035 1.25-1.444.33-.414.57-.802.73-1.164q.24-.55.24-1.15 0-.69-.33-1.196a2.2 2.2 0 0 0-.9-.78 2.9 2.9 0 0 0-1.28-.274c-.5 0-.94.104-1.31.313q-.555.306-.87.863-.3.555-.3 1.304h-1.5c0-.767.17-1.44.53-2.02q.525-.87 1.44-1.355c.61-.324 1.3-.486 2.06-.486q1.155 0 2.04.486c.6.324 1.06.76 1.4 1.31.33.55.5 1.162.5 1.835 0 .481-.08.952-.26 1.412-.17.456-.47.966-.89 1.528-.43.558-1.01 1.24-1.76 2.046l-2.94 3.144v.103h6.08v1.406z"/><path fill="#fff" stroke="gray" d="M1062.27 520.554h82v77.643h-82z"/><path fill="#c8a755" d="M1106.89 521.308h12.89v29.175h-12.89z"/><path stroke="#fff" d="M1119.78 529.261h-12.89"/><path fill="#c8a755" d="M1085.62 521.308h12.88v29.175h-12.88z"/><path stroke="#fff" d="M1098.5 529.261h-12.89"/><path fill="#000" d="M1089.2 580.83v-1.15l4.32-4.73c.51-.554.92-1.036 1.25-1.445.33-.413.57-.801.73-1.163q.24-.55.24-1.151 0-.69-.33-1.195a2.15 2.15 0 0 0-.89-.78 2.9 2.9 0 0 0-1.28-.275q-.75 0-1.32.313c-.37.205-.66.493-.86.863q-.3.557-.3 1.304h-1.51c0-.767.18-1.44.53-2.02.35-.579.84-1.031 1.44-1.355a4.4 4.4 0 0 1 2.07-.486q1.155 0 2.04.486c.59.324 1.06.761 1.39 1.311q.51.824.51 1.834 0 .723-.27 1.413c-.17.456-.46.965-.89 1.527-.42.559-1.01 1.241-1.76 2.046l-2.94 3.145v.102h6.09v1.406zm15.5-13.091v13.091h-1.59v-11.429h-.07l-3.2 2.123v-1.611l3.27-2.174zm4.17 13.091 5.86-11.582v-.102h-6.75v-1.407h8.38v1.483l-5.82 11.608z"/><path fill="#fff" stroke="gray" d="M1062.27 441.911h82v77.643h-82z"/><path fill="#c8a755" d="M1106.89 442.665h12.89v29.175h-12.89z"/><path stroke="#fff" d="M1119.78 450.619h-12.89"/><path fill="#c8a755" d="M1085.62 442.665h12.88v29.175h-12.88z"/><path stroke="#fff" d="M1098.5 450.619h-12.89"/><path fill="#000" d="M1089.2 502.188v-1.151l4.32-4.73c.51-.554.92-1.036 1.25-1.445.33-.413.57-.801.73-1.163q.24-.55.24-1.151 0-.69-.33-1.195a2.15 2.15 0 0 0-.89-.78 2.9 2.9 0 0 0-1.28-.275q-.75 0-1.32.314c-.37.204-.66.492-.86.862q-.3.557-.3 1.304h-1.51c0-.767.18-1.44.53-2.019s.84-1.032 1.44-1.356a4.4 4.4 0 0 1 2.07-.485q1.155 0 2.04.485c.59.324 1.06.761 1.39 1.311q.51.825.51 1.834 0 .723-.27 1.413c-.17.456-.46.965-.89 1.528-.42.558-1.01 1.24-1.76 2.045l-2.94 3.145v.102h6.09v1.407zm15.5-13.091v13.091h-1.59v-11.429h-.07l-3.2 2.122v-1.611l3.27-2.173zm8.11 13.27a4.9 4.9 0 0 1-1.61-.307q-.81-.294-1.47-.991c-.44-.469-.8-1.102-1.07-1.899-.27-.801-.4-1.806-.4-3.017q0-1.739.33-3.081c.21-.899.53-1.655.94-2.269q.615-.927 1.5-1.406c.59-.32 1.25-.479 1.99-.479q1.095 0 1.95.441.87.434 1.41 1.214c.36.52.59 1.119.7 1.796h-1.56a2.9 2.9 0 0 0-.84-1.463c-.42-.388-.97-.582-1.66-.582q-1.53 0-2.4 1.323c-.58.882-.87 2.12-.88 3.714h.1c.24-.362.53-.671.85-.927.34-.26.7-.46 1.1-.601s.83-.211 1.28-.211c.75 0 1.43.188 2.05.563q.945.555 1.5 1.54c.38.652.56 1.4.56 2.244q0 1.214-.54 2.224a4.1 4.1 0 0 1-1.53 1.598c-.65.392-1.42.584-2.3.576m0-1.407c.54 0 1.02-.134 1.45-.402.43-.269.76-.629 1.01-1.081s.38-.954.38-1.508a2.95 2.95 0 0 0-.37-1.477 2.66 2.66 0 0 0-.99-1.067c-.41-.264-.89-.397-1.43-.397-.4 0-.78.081-1.13.243a2.9 2.9 0 0 0-.92.652c-.26.277-.46.595-.61.953a2.96 2.96 0 0 0 .14 2.576c.24.451.58.816 1.01 1.093s.92.415 1.46.415"/><path stroke="#000" stroke-width="2.5" d="m.086 554.578 954.85.011M.086-.518l954.85.011M.086 244.129l954.85.011M.086 790.507l954.85.01M954.936 755.986h189.834M954.936 43.615h189.834"/><path stroke="#000" stroke-width="3" d="m.086 553.672.003 238.09M.086.743.09 243.93M954.934 244.577l.002 310.439M1144.77 44.865v712.371"/><path fill="#a3a3a3" stroke="#000" d="M1093.23 358.682h49.304v82.228h-49.304z"/><path stroke="#000" d="M1092.73 400.258h50.6"/><path fill="#000" d="M1072.4 380.758v-10.182h1.24v9.088h4.73v1.094zm3.32 6.818v10.182h-1.23v-10.182zm-3.49 27.182v-10.182h6.11v1.094h-4.88v3.44h4.42v1.094h-4.42v4.554zm-.94 7.912v-1.094h7.64v1.094h-3.2v9.088h-1.24v-9.088z"/></g><defs><clipPath id="a"><path fill="#fff" d="M0 0h1145v791H0z"/></clipPath></defs></svg>