<svg xmlns="http://www.w3.org/2000/svg" width="1473" height="900" fill="none" viewBox="0 0 1473 900"><g clip-path="url(#a)"><path fill="#fff" d="M0 0h1473v900H0z"/><path fill="#fff" d="M0 0h1400v900H0z"/><mask id="b" fill="#fff"><path d="M0 0h980.08v455.68H0z"/></mask><path fill="#555" fill-opacity=".18" d="M0 0h980.08v455.68H0z"/><path fill="#000" d="M0 0v-1h-1v1zm0 455.68h-1v2h1zM0 0v1h980.08v-2H0zm980.08 455.68v-2H0v4h980.08zM0 455.68h1V0h-2v455.68z" mask="url(#b)"/><mask id="c" fill="#fff"><path d="M980.08 455.68H1400V900H980.08z"/></mask><path fill="#555" fill-opacity=".18" d="M980.08 455.68H1400V900H980.08z"/><path fill="#000" d="M1400 900v1h1v-1zm-419.92 0h-2v1h2zM1400 455.68h-1V900h2V455.68zm0 444.32v-1H980.08v2H1400zm-419.92 0h2V455.68h-4V900z" mask="url(#c)"/><mask id="d" fill="#fff"><path d="M980.08 0H1400v455.68H980.08z"/></mask><path fill="#555" fill-opacity=".18" d="M980.08 0H1400v455.68H980.08z"/><path fill="#000" d="M1400 0h1v-1h-1zM980.08 0v1H1400v-2H980.08zM1400 0h-1v455.68h2V0z" mask="url(#d)"/><path stroke="#fff" d="M784.529 68.346h14M619.529 68.346h14M460.529 68.346h14"/><path fill="#e9e9e9" stroke="#c6c6c6" d="M248.029 23.346h68v26h-68z"/><path stroke="#fff" d="M303.029 22.846v27"/><path fill="#e9e9e9" stroke="#c6c6c6" d="M87.029 23.346h68v26h-68z"/><path stroke="#fff" d="M142.029 22.846v27M962.529 68.346h14"/><mask id="e" fill="#fff"><path d="M0 455.68h980.08V900H0z"/></mask><path fill="#000" d="M0 900h-1v1h1zm980.08 0v-1H0v2h980.08zM0 900h1V455.68h-2V900z" mask="url(#e)"/><path fill="#fff" stroke="#000" stroke-width="3" d="M1.5 1.5h157.538v185.759H1.5z"/><path fill="#fff" stroke="#000" stroke-width="3" d="M77.251 122.403h81.787v64.856H77.251zM162.038 1.5h157.538v185.759H162.038z"/><path fill="#fff" stroke="#000" stroke-width="3" d="M237.789 122.403h81.787v64.856h-81.787zM322.577 1.5h157.538v185.759H322.577z"/><path fill="#fff" stroke="#000" stroke-width="3" d="M398.328 122.403h81.787v64.856h-81.787zM483.115 1.5h157.538v185.759H483.115z"/><path fill="#fff" stroke="#000" stroke-width="3" d="M558.866 122.403h81.787v64.856h-81.787zM643.653 1.5h157.538v185.759H643.653z"/><path fill="#fff" stroke="#000" stroke-width="3" d="M719.404 122.403h81.787v64.856h-81.787zM162.038 268.421h157.538V454.18H162.038zM3.5 268.5h157.538v185.759H3.5zM322.577 268.421h157.538V454.18H322.577z"/><path fill="#fff" stroke="#000" stroke-width="3" d="M322.577 268.421h157.538V454.18H322.577zM237.789 268.421h81.787v64.856h-81.787zM77.5 268.5h81.787v64.856H77.5z"/><path fill="#fff" stroke="#000" stroke-width="3" d="M398.328 268.421h81.787v64.856h-81.787zM483.115 268.421h157.538V454.18H483.115z"/><path fill="#fff" stroke="#000" stroke-width="3" d="M483.115 268.421h157.538V454.18H483.115z"/><path fill="#fff" stroke="#000" stroke-width="3" d="M558.866 268.421h81.787v64.856h-81.787zM643.653 268.421h157.538V454.18H643.653z"/><path fill="#fff" stroke="#000" stroke-width="3" d="M643.653 268.421h157.538V454.18H643.653z"/><path fill="#fff" stroke="#000" stroke-width="3" d="M719.404 268.421h81.787v64.856h-81.787zM804.191 268.421H980.43V454.18H804.191z"/><path fill="#fff" stroke="#000" stroke-width="3" d="M804.191 268.421H980.43V454.18H804.191z"/><path fill="#fff" stroke="#000" stroke-width="3" d="M804.191 268.421H980.43V454.18H804.191z"/><path fill="#fff" stroke="#000" stroke-width="3" d="M888.766 268.421h91.664v64.856h-91.664z"/><mask id="f" fill="#fff"><path d="M1263 787h136v113h-136z"/></mask><path fill="#fff" d="M1263 787h136v113h-136z"/><path fill="#000" d="M1263 787v-1h-1v1zm0 113h-1v1h1zm0-113v1h136v-2h-136zm136 113v-1h-136v2h136zm-136 0h1V787h-2v113z" mask="url(#f)"/><path fill="#050404" d="M1273.83 814.455a1.34 1.34 0 0 0-.62-1.006c-.37-.239-.81-.358-1.34-.358-.39 0-.73.062-1.01.187-.29.125-.52.297-.68.516q-.24.328-.24.746c0 .233.06.433.17.601.11.164.26.302.43.413.18.108.36.197.56.268.19.069.37.124.53.167l.89.238c.22.06.48.142.76.247s.55.249.8.431c.26.179.47.409.64.69s.25.627.25 1.036c0 .471-.12.897-.37 1.278-.24.381-.6.683-1.07.908q-.705.336-1.71.336c-.63 0-1.17-.1-1.63-.302a2.6 2.6 0 0 1-1.07-.844c-.26-.361-.4-.78-.44-1.257h1.09c.03.33.14.602.34.818.19.213.44.372.74.477.3.103.62.154.97.154q.6 0 1.08-.196c.33-.134.58-.318.77-.554.19-.239.28-.517.28-.835q0-.435-.24-.708a1.9 1.9 0 0 0-.64-.443 7 7 0 0 0-.86-.298l-1.07-.307q-1.035-.294-1.62-.84-.6-.545-.6-1.427c0-.489.13-.915.4-1.279.26-.366.62-.65 1.07-.852.45-.204.96-.307 1.51-.307q.855 0 1.5.303c.44.199.79.472 1.04.818.26.347.4.74.41 1.181zm2.4-1.245v-.937h6.55v.937h-2.75V821h-1.05v-7.79zm7.52 7.79h-1.11l3.2-8.727h1.09l3.21 8.727h-1.11l-2.61-7.347h-.07zm.41-3.409h4.46v.937h-4.46zm8.4-5.318V821h-1.06v-8.727zm2.11 8.727v-8.727h2.95q1.02 0 1.68.349c.44.23.76.547.97.95.21.404.32.863.32 1.377s-.11.97-.32 1.368q-.315.596-.96.937c-.44.225-.99.337-1.67.337h-2.39v-.955h2.36c.46 0 .84-.068 1.12-.204.29-.137.5-.33.62-.58.13-.253.2-.554.2-.903 0-.35-.07-.655-.2-.916a1.35 1.35 0 0 0-.62-.605q-.435-.218-1.14-.218h-1.86V821zm4.11-3.92 2.15 3.92h-1.23l-2.11-3.92zm8.34-2.625a1.34 1.34 0 0 0-.62-1.006c-.36-.239-.81-.358-1.34-.358-.38 0-.72.062-1.01.187s-.51.297-.68.516c-.15.219-.23.467-.23.746 0 .233.05.433.16.601.12.164.26.302.44.413.17.108.36.197.55.268.19.069.37.124.53.167l.89.238c.23.06.48.142.76.247s.55.249.8.431c.26.179.48.409.64.69.17.281.25.627.25 1.036 0 .471-.12.897-.37 1.278-.24.381-.6.683-1.07.908q-.705.336-1.71.336c-.62 0-1.17-.1-1.62-.302a2.63 2.63 0 0 1-1.08-.844c-.25-.361-.4-.78-.44-1.257h1.1q.03.495.33.818c.19.213.44.372.74.477.3.103.62.154.97.154.4 0 .77-.065 1.09-.196.32-.134.57-.318.76-.554.19-.239.28-.517.28-.835q0-.435-.24-.708a1.8 1.8 0 0 0-.64-.443 6 6 0 0 0-.86-.298l-1.07-.307q-1.02-.294-1.62-.84-.6-.545-.6-1.427c0-.489.14-.915.4-1.279.27-.366.62-.65 1.07-.852.46-.204.96-.307 1.52-.307q.84 0 1.5.303c.43.199.78.472 1.04.818.25.347.39.74.41 1.181z"/><path fill="#000" d="M1216.94 812.939a1.493 1.493 0 0 0 0 2.122l9.55 9.546a1.5 1.5 0 0 0 2.12 0c.58-.586.58-1.536 0-2.122l-8.49-8.485 8.49-8.485c.58-.586.58-1.536 0-2.122a1.5 1.5 0 0 0-2.12 0zM1258.1 814v-1.5H1218v3h40.1zM1342.37 742.451a1.49 1.49 0 0 0 0 2.121l9.54 9.546c.59.586 1.54.586 2.12 0 .59-.586.59-1.535 0-2.121l-8.48-8.485 8.48-8.486c.59-.585.59-1.535 0-2.121a1.5 1.5 0 0 0-2.12 0zm-.67-84.623a1.49 1.49 0 0 0 0 2.121l9.54 9.546a1.51 1.51 0 0 0 2.13 0 1.51 1.51 0 0 0 0-2.121l-8.49-8.485 8.49-8.486a1.51 1.51 0 0 0 0-2.121 1.51 1.51 0 0 0-2.13 0zm41.83 85.684v-1.5h-40.1v3h40.1zm-.67-84.623v-1.5h-40.1v3h40.1z"/><g filter="url(#g)"><path fill="#d9d9d9" d="M1398.75 612.717h73.922v87.614h-73.922z"/><path stroke="#000" d="M1399.25 613.217h72.922v86.614h-72.922z"/></g><g filter="url(#h)"><path fill="#d9d9d9" d="M1398.75 700.331h73.922v87.614h-73.922z"/><path stroke="#000" d="M1399.25 700.831h72.922v86.614h-72.922z"/></g><path fill="#050404" d="M1423.45 748.638v-8.728h1.05v7.79h4.06v.938zm7.8-8.728v8.728h-1.05v-8.728zm2.12 8.728v-8.728h5.24v.938h-4.18v2.949h3.78v.937h-3.78v3.904zm6.57-7.79v-.938h6.54v.938h-2.74v7.79h-1.06v-7.79zM1423.45 663.229v-8.728h1.05v7.79h4.06v.938zm7.8-8.728v8.728h-1.05v-8.728zm2.12 8.728v-8.728h5.24v.938h-4.18v2.949h3.78v.937h-3.78v3.904zm6.57-7.79v-.938h6.54v.938h-2.74v7.79h-1.06v-7.79z"/><path stroke="#04ff10" stroke-width="5" d="M1263.5 833.768V794M1401.67 684.146l-.13-50.822M1401.54 769.555l-.12-50.822"/><path fill="#e9e9e9" stroke="#c6c6c6" d="M248.029 369.345h68v51h-68zM87.5 369.5h68v51h-68z"/><path stroke="#fff" d="M303.029 368.845v52M302.529 394.345h14"/><path fill="#e9e9e9" stroke="#c6c6c6" d="M569.029 361.345h68v51h-68z"/><path stroke="#fff" d="M624.029 360.845v52M623.529 386.345h14"/><path fill="#e9e9e9" stroke="#c6c6c6" d="M730.029 43.346h68v51h-68z"/><path stroke="#fff" d="M785.029 42.846v52"/><path fill="#e9e9e9" stroke="#c6c6c6" d="M565.029 43.346h68v51h-68z"/><path stroke="#fff" d="M620.029 42.846v52"/><path fill="#e9e9e9" stroke="#c6c6c6" d="M406.029 43.346h68v51h-68z"/><path stroke="#fff" d="M461.029 42.846v52"/><path fill="#e9e9e9" stroke="#c6c6c6" d="M248.029 69.346h68v26h-68z"/><path stroke="#fff" d="M303.029 68.846v27"/><path fill="#e9e9e9" stroke="#c6c6c6" d="M87.029 69.346h68v26h-68z"/><path stroke="#fff" d="M142.029 68.846v27"/><path fill="#e9e9e9" stroke="#c6c6c6" d="M408.029 361.345h68v26h-68z"/><path stroke="#fff" d="M463.029 360.845v27"/><path fill="#e9e9e9" stroke="#c6c6c6" d="M408.029 407.345h68v26h-68z"/><path stroke="#fff" d="M463.029 406.845v27"/><path fill="#e9e9e9" stroke="#c6c6c6" d="M730.029 361.345h68v26h-68z"/><path stroke="#fff" d="M785.029 360.845v27"/><path fill="#e9e9e9" stroke="#c6c6c6" d="M730.029 407.345h68v26h-68z"/><path stroke="#fff" d="M785.029 406.845v27"/><path fill="#e9e9e9" stroke="#c6c6c6" d="M730.029 361.345h68v26h-68z"/><path stroke="#fff" d="M785.029 360.845v27"/><path fill="#e9e9e9" stroke="#c6c6c6" d="M730.029 407.345h68v26h-68z"/><path stroke="#fff" d="M785.029 406.845v27"/><path fill="#e9e9e9" stroke="#c6c6c6" d="M908.029 361.345h68v26h-68z"/><path stroke="#fff" d="M963.029 360.845v27"/><path fill="#e9e9e9" stroke="#c6c6c6" d="M908.029 407.345h68v26h-68z"/><path stroke="#fff" d="M963.029 406.845v27"/><path fill="#fff" stroke="#000" stroke-width="3" d="M983.5 1.5h176.239v185.759H983.5z"/><path fill="#fff" stroke="#000" stroke-width="3" d="M983.5 1.5h176.239v185.759H983.5z"/><path fill="#fff" stroke="#000" stroke-width="3" d="M983.5 1.5h176.239v185.759H983.5z"/><path fill="#fff" stroke="#000" stroke-width="3" d="M1068.08 1.5h91.664v64.856h-91.664z"/><path fill="#e9e9e9" stroke="#c6c6c6" d="M1087.34 94.425h68v26h-68z"/><path stroke="#fff" d="M1142.34 93.925v27"/><path fill="#e9e9e9" stroke="#c6c6c6" d="M1087.34 140.425h68v26h-68z"/><path stroke="#fff" d="M1142.34 139.925v27"/><path fill="#fff" stroke="#000" stroke-width="3" d="M1221.5 380.5h176.239v185.759H1221.5z"/><path fill="#fff" stroke="#000" stroke-width="3" d="M1221.5 380.5h176.239v185.759H1221.5z"/><path fill="#fff" stroke="#000" stroke-width="3" d="M1221.5 380.5h176.239v185.759H1221.5z"/><path fill="#fff" stroke="#000" stroke-width="3" d="M1306.08 380.5h91.664v64.856h-91.664z"/><path fill="#e9e9e9" stroke="#c6c6c6" d="M1325.34 473.425h68v26h-68z"/><path stroke="#fff" d="M1380.34 472.925v27"/><path fill="#e9e9e9" stroke="#c6c6c6" d="M1325.34 519.425h68v26h-68z"/><path stroke="#fff" d="M1380.34 518.925v27"/><path fill="#fff" stroke="#000" stroke-width="3" d="M804.191 1.5H980.43v185.759H804.191z"/><path fill="#fff" stroke="#000" stroke-width="3" d="M888.766 122.403h91.664v64.856h-91.664z"/><path fill="#e9e9e9" stroke="#c6c6c6" d="M908.029 43.346h68v51h-68z"/><path fill="#fff" stroke="#000" stroke-width="3" d="M1221.5 2.5h176.239v185.759H1221.5z"/><path fill="#fff" stroke="#000" stroke-width="3" d="M1306.07 123.403h91.664v64.856h-91.664z"/><path fill="#e9e9e9" stroke="#c6c6c6" d="M1325.34 44.346h68v51h-68z"/><path fill="#fff" stroke="#000" stroke-width="3" d="M1221.5 191.5h176.239v185.759H1221.5z"/><path fill="#fff" stroke="#000" stroke-width="3" d="M1306.07 312.403h91.664v64.856h-91.664z"/><path fill="#e9e9e9" stroke="#c6c6c6" d="M1325.34 233.345h68v51h-68z"/><path fill="#fff" stroke="#000" stroke-width="3" d="M1158.74 898.259H982.501V712.5h176.239z"/><path fill="#fff" stroke="#000" stroke-width="3" d="M1074.16 777.356h-91.664V712.5h91.664z"/><path fill="#e9e9e9" stroke="#c6c6c6" d="M1054.9 856.414h-68v-51h68z"/><path stroke="#fff" d="M963.029 42.846v52"/><path fill="#b6c3a7" d="M1.529 455.845h979v209h-979z"/><path fill="#050404" d="M418.114 567.845v-13.09h4.423q1.54 0 2.519.556.984.55 1.457 1.489t.473 2.097q0 1.156-.473 2.103-.466.945-1.444 1.508-.978.556-2.506.556h-3.171v-1.406h3.12q1.055 0 1.694-.364t.927-.985q.294-.626.294-1.412 0-.787-.294-1.407a2.1 2.1 0 0 0-.934-.971q-.645-.358-1.713-.358h-2.787v11.684zm10.627 0h-1.662l4.807-13.09h1.636l4.807 13.09h-1.662l-3.912-11.019h-.102zm.613-5.113h6.699v1.406h-6.699zm11.014 5.113v-13.09h4.423q1.534 0 2.519.524.984.518 1.457 1.425t.473 2.065q0 1.157-.473 2.052-.473.894-1.451 1.406-.978.505-2.499.505h-3.58V561.3h3.529q1.048 0 1.687-.307.647-.306.933-.869.294-.569.294-1.355t-.294-1.375-.939-.907q-.647-.327-1.707-.326h-2.787v11.684zm6.162-5.88 3.221 5.88h-1.84l-3.171-5.88zm5.352 5.88v-13.09h1.585v6.494h.153l5.881-6.494h2.071l-5.497 5.906 5.497 7.184h-1.918l-4.551-6.085-1.636 1.841v4.244zm13.327-13.09v13.09h-1.585v-13.09zm13.559 0v13.09h-1.534l-7.133-10.278h-.128v10.278h-1.586v-13.09h1.535l7.159 10.304h.127v-10.304zm12.121 4.09a4.6 4.6 0 0 0-.556-1.157 3.6 3.6 0 0 0-.812-.882 3.4 3.4 0 0 0-1.061-.556 4.2 4.2 0 0 0-1.304-.191q-1.163 0-2.116.6-.952.601-1.515 1.771t-.562 2.87q0 1.7.569 2.87t1.54 1.771q.972.6 2.186.6 1.125 0 1.982-.479a3.4 3.4 0 0 0 1.342-1.368q.486-.888.486-2.09l.486.102h-3.938V561.3h4.986v1.406q0 1.617-.69 2.813a4.76 4.76 0 0 1-1.892 1.853q-1.202.652-2.762.652-1.738 0-3.055-.818-1.31-.818-2.045-2.326-.729-1.509-.729-3.58 0-1.554.415-2.793.423-1.247 1.189-2.122a5.2 5.2 0 0 1 1.816-1.343q1.048-.466 2.307-.466 1.035 0 1.931.313a5.18 5.18 0 0 1 2.786 2.224q.474.78.652 1.732zm10.028 9h-1.662l4.806-13.09h1.637l4.807 13.09h-1.662l-3.912-11.019h-.102zm.613-5.113h6.699v1.406h-6.699zm11.014 5.113v-13.09h4.423q1.534 0 2.518.524.986.518 1.458 1.425.473.907.473 2.065t-.473 2.052-1.451 1.406q-.978.505-2.499.505h-3.58V561.3h3.528q1.049 0 1.688-.307.645-.306.933-.869.294-.569.294-1.355t-.294-1.375-.939-.907q-.647-.327-1.707-.326h-2.787v11.684zm6.162-5.88 3.221 5.88h-1.841l-3.17-5.88zm5.351 5.88v-13.09h7.901v1.406h-6.315v4.423h5.906v1.406h-5.906v4.449h6.417v1.406zm11.295 0h-1.662l4.807-13.09h1.636l4.807 13.09h-1.662l-3.912-11.019h-.102zm.614-5.113h6.699v1.406h-6.699z"/><path stroke="#000" d="M1264 838.5h102M1365.5 839v33M1366 872.5h-76M1290.5 872v-5M1290 866.5h67M1356.5 867v5"/><path fill="#d9d9d9" d="M1312 788h7v50h-7zM1323 788h7v50h-7zM1334 788h7v50h-7z"/><path fill="#d9d9d9" d="M1333 788h7v50h-7zM1344 788h7v50h-7zM1355 788h7v50h-7zM1366 788h7v50h-7zM1359 873h7v26h-7zM1348 873h7v26h-7zM1337 873h7v26h-7zM1326 873h7v26h-7zM1315 873h7v26h-7zM1304 873h7v26h-7zM1293 873h7v26h-7zM1264 839h29v27h-29zM1297 839h7v27h-7zM1308 839h7v27h-7zM1319 839h7v27h-7zM1330 839h7v27h-7zM1341 839h7v27h-7zM1352 839h7v27h-7z"/><path fill="#d9d9d9" d="M1366 845v-57h33v57zM1366.05 856.246l-.053-7 32.665-.246.053 7zM1366.05 867.246l-.053-7 32.665-.246.053 7zM1264 873v-7h26v7zM1357.04 871.452l-.04-5.393 7.903-.06.04 5.393zM1366 899.034v-28h33v28z"/><path stroke="#04ff10" stroke-width="5" d="M1159.5 882.768V843M1221.5 433.768V394M1221.5 360.768V321M1221.5 161.768V122M1035.77 186.5H996M850.768 186.5H811M689.768 186.5H650M529.768 186.5H490M369.768 186.5H330M209.768 186.5H170M52.768 186.5H13M52.768 269.5H13M209.768 269.5H170M369.768 269.5H330M529.768 267.5H490M689.768 267.5H650M848.768 267.5H809"/></g><defs><filter id="g" width="81.922" height="95.614" x="1394.75" y="612.717" color-interpolation-filters="sRGB" filterUnits="userSpaceOnUse"><feFlood flood-opacity="0" result="BackgroundImageFix"/><feColorMatrix in="SourceAlpha" result="hardAlpha" values="0 0 0 0 0 0 0 0 0 0 0 0 0 0 0 0 0 0 127 0"/><feOffset dy="4"/><feGaussianBlur stdDeviation="2"/><feComposite in2="hardAlpha" operator="out"/><feColorMatrix values="0 0 0 0 0 0 0 0 0 0 0 0 0 0 0 0 0 0 0.25 0"/><feBlend in2="BackgroundImageFix" result="effect1_dropShadow_6_36"/><feBlend in="SourceGraphic" in2="effect1_dropShadow_6_36" result="shape"/></filter><filter id="h" width="81.922" height="95.614" x="1394.75" y="700.331" color-interpolation-filters="sRGB" filterUnits="userSpaceOnUse"><feFlood flood-opacity="0" result="BackgroundImageFix"/><feColorMatrix in="SourceAlpha" result="hardAlpha" values="0 0 0 0 0 0 0 0 0 0 0 0 0 0 0 0 0 0 127 0"/><feOffset dy="4"/><feGaussianBlur stdDeviation="2"/><feComposite in2="hardAlpha" operator="out"/><feColorMatrix values="0 0 0 0 0 0 0 0 0 0 0 0 0 0 0 0 0 0 0.25 0"/><feBlend in2="BackgroundImageFix" result="effect1_dropShadow_6_36"/><feBlend in="SourceGraphic" in2="effect1_dropShadow_6_36" result="shape"/></filter><clipPath id="a"><path fill="#fff" d="M0 0h1473v900H0z"/></clipPath></defs></svg>