<svg width="1473" height="900" viewBox="0 0 1473 900" fill="none" xmlns="http://www.w3.org/2000/svg">
<g clip-path="url(#clip0_6_36)">
<rect width="1473" height="900" fill="white"/>
<rect width="1400" height="900" fill="white"/>
<mask id="path-2-inside-1_6_36" fill="white">
<path d="M0 0H980.08V455.68H0V0Z"/>
</mask>
<path d="M0 0H980.08V455.68H0V0Z" fill="#555555" fill-opacity="0.18"/>
<path d="M0 0V-1H-1V0H0ZM0 455.68H-1V457.68H0V455.68ZM0 0V1H980.08V0V-1H0V0ZM980.08 455.68V453.68H0V455.68V457.68H980.08V455.68ZM0 455.68H1V0H0H-1V455.68H0Z" fill="black" mask="url(#path-2-inside-1_6_36)"/>
<mask id="path-4-inside-2_6_36" fill="white">
<path d="M980.08 455.68H1400V900H980.08V455.68Z"/>
</mask>
<path d="M980.08 455.68H1400V900H980.08V455.68Z" fill="#555555" fill-opacity="0.18"/>
<path d="M1400 900V901H1401V900H1400ZM980.08 900H978.08V901H980.08V900ZM1400 455.68H1399V900H1400H1401V455.68H1400ZM1400 900V899H980.08V900V901H1400V900ZM980.08 900H982.08V455.68H980.08H978.08V900H980.08Z" fill="black" mask="url(#path-4-inside-2_6_36)"/>
<mask id="path-6-inside-3_6_36" fill="white">
<path d="M980.08 0H1400V455.68H980.08V0Z"/>
</mask>
<path d="M980.08 0H1400V455.68H980.08V0Z" fill="#555555" fill-opacity="0.18"/>
<path d="M1400 0H1401V-1H1400V0ZM980.08 0V1H1400V0V-1H980.08V0ZM1400 0H1399V455.68H1400H1401V0H1400Z" fill="black" mask="url(#path-6-inside-3_6_36)"/>
<line x1="784.529" y1="68.3455" x2="798.529" y2="68.3455" stroke="white"/>
<line x1="619.529" y1="68.3455" x2="633.529" y2="68.3455" stroke="white"/>
<line x1="460.529" y1="68.3455" x2="474.529" y2="68.3455" stroke="white"/>
<rect x="248.029" y="23.3455" width="68" height="26" fill="#E9E9E9" stroke="#C6C6C6"/>
<line x1="303.029" y1="22.8455" x2="303.029" y2="49.8455" stroke="white"/>
<rect x="87.0287" y="23.3455" width="68" height="26" fill="#E9E9E9" stroke="#C6C6C6"/>
<line x1="142.029" y1="22.8455" x2="142.029" y2="49.8455" stroke="white"/>
<line x1="962.529" y1="68.3455" x2="976.529" y2="68.3455" stroke="white"/>
<mask id="path-16-inside-4_6_36" fill="white">
<path d="M0 455.68H980.08V900H0V455.68Z"/>
</mask>
<path d="M0 900H-1V901H0V900ZM980.08 900V899H0V900V901H980.08V900ZM0 900H1V455.68H0H-1V900H0Z" fill="black" mask="url(#path-16-inside-4_6_36)"/>
<rect x="1.5" y="1.5" width="157.538" height="185.759" fill="white" stroke="black" stroke-width="3"/>
<rect x="77.2512" y="122.403" width="81.7871" height="64.856" fill="white" stroke="black" stroke-width="3"/>
<rect x="162.038" y="1.5" width="157.538" height="185.759" fill="white" stroke="black" stroke-width="3"/>
<rect x="237.789" y="122.403" width="81.7871" height="64.856" fill="white" stroke="black" stroke-width="3"/>
<rect x="322.577" y="1.5" width="157.538" height="185.759" fill="white" stroke="black" stroke-width="3"/>
<rect x="398.328" y="122.403" width="81.7871" height="64.856" fill="white" stroke="black" stroke-width="3"/>
<rect x="483.115" y="1.5" width="157.538" height="185.759" fill="white" stroke="black" stroke-width="3"/>
<rect x="558.866" y="122.403" width="81.7871" height="64.856" fill="white" stroke="black" stroke-width="3"/>
<rect x="643.653" y="1.5" width="157.538" height="185.759" fill="white" stroke="black" stroke-width="3"/>
<rect x="719.404" y="122.403" width="81.7871" height="64.856" fill="white" stroke="black" stroke-width="3"/>
<rect x="162.038" y="268.421" width="157.538" height="185.759" fill="white" stroke="black" stroke-width="3"/>
<rect x="3.5" y="268.5" width="157.538" height="185.759" fill="white" stroke="black" stroke-width="3"/>
<rect x="322.577" y="268.421" width="157.538" height="185.759" fill="white" stroke="black" stroke-width="3"/>
<rect x="322.577" y="268.421" width="157.538" height="185.759" fill="white" stroke="black" stroke-width="3"/>
<rect x="237.789" y="268.421" width="81.7871" height="64.856" fill="white" stroke="black" stroke-width="3"/>
<rect x="77.5" y="268.5" width="81.7871" height="64.856" fill="white" stroke="black" stroke-width="3"/>
<rect x="398.328" y="268.421" width="81.7871" height="64.856" fill="white" stroke="black" stroke-width="3"/>
<rect x="483.115" y="268.421" width="157.538" height="185.759" fill="white" stroke="black" stroke-width="3"/>
<rect x="483.115" y="268.421" width="157.538" height="185.759" fill="white" stroke="black" stroke-width="3"/>
<rect x="558.866" y="268.421" width="81.7871" height="64.856" fill="white" stroke="black" stroke-width="3"/>
<rect x="643.653" y="268.421" width="157.538" height="185.759" fill="white" stroke="black" stroke-width="3"/>
<rect x="643.653" y="268.421" width="157.538" height="185.759" fill="white" stroke="black" stroke-width="3"/>
<rect x="719.404" y="268.421" width="81.7871" height="64.856" fill="white" stroke="black" stroke-width="3"/>
<rect x="804.191" y="268.421" width="176.239" height="185.759" fill="white" stroke="black" stroke-width="3"/>
<rect x="804.191" y="268.421" width="176.239" height="185.759" fill="white" stroke="black" stroke-width="3"/>
<rect x="804.191" y="268.421" width="176.239" height="185.759" fill="white" stroke="black" stroke-width="3"/>
<rect x="888.766" y="268.421" width="91.6637" height="64.856" fill="white" stroke="black" stroke-width="3"/>
<mask id="path-45-inside-5_6_36" fill="white">
<path d="M1263 787H1399V900H1263V787Z"/>
</mask>
<path d="M1263 787H1399V900H1263V787Z" fill="white"/>
<path d="M1263 787V786H1262V787H1263ZM1263 900H1262V901H1263V900ZM1263 787V788H1399V787V786H1263V787ZM1399 900V899H1263V900V901H1399V900ZM1263 900H1264V787H1263H1262V900H1263Z" fill="black" mask="url(#path-45-inside-5_6_36)"/>
<path d="M1273.83 814.455C1273.78 814.023 1273.57 813.688 1273.21 813.449C1272.84 813.21 1272.4 813.091 1271.87 813.091C1271.48 813.091 1271.14 813.153 1270.86 813.278C1270.57 813.403 1270.34 813.575 1270.18 813.794C1270.02 814.013 1269.94 814.261 1269.94 814.54C1269.94 814.773 1270 814.973 1270.11 815.141C1270.22 815.305 1270.37 815.443 1270.54 815.554C1270.72 815.662 1270.9 815.751 1271.1 815.822C1271.29 815.891 1271.47 815.946 1271.63 815.989L1272.52 816.227C1272.74 816.287 1273 816.369 1273.28 816.474C1273.56 816.58 1273.83 816.723 1274.08 816.905C1274.34 817.084 1274.55 817.314 1274.72 817.595C1274.89 817.876 1274.97 818.222 1274.97 818.631C1274.97 819.102 1274.85 819.528 1274.6 819.909C1274.36 820.29 1274 820.592 1273.53 820.817C1273.06 821.041 1272.49 821.153 1271.82 821.153C1271.19 821.153 1270.65 821.053 1270.19 820.851C1269.74 820.649 1269.38 820.368 1269.12 820.007C1268.86 819.646 1268.72 819.227 1268.68 818.75H1269.77C1269.8 819.08 1269.91 819.352 1270.11 819.568C1270.3 819.781 1270.55 819.94 1270.85 820.045C1271.15 820.148 1271.47 820.199 1271.82 820.199C1272.22 820.199 1272.58 820.134 1272.9 820.003C1273.23 819.869 1273.48 819.685 1273.67 819.449C1273.86 819.21 1273.95 818.932 1273.95 818.614C1273.95 818.324 1273.87 818.088 1273.71 817.906C1273.54 817.724 1273.33 817.577 1273.07 817.463C1272.8 817.349 1272.52 817.25 1272.21 817.165L1271.14 816.858C1270.45 816.662 1269.91 816.382 1269.52 816.018C1269.12 815.655 1268.92 815.179 1268.92 814.591C1268.92 814.102 1269.05 813.676 1269.32 813.312C1269.58 812.946 1269.94 812.662 1270.39 812.46C1270.84 812.256 1271.35 812.153 1271.9 812.153C1272.47 812.153 1272.97 812.254 1273.4 812.456C1273.84 812.655 1274.19 812.928 1274.44 813.274C1274.7 813.621 1274.84 814.014 1274.85 814.455H1273.83ZM1276.23 813.21V812.273H1282.78V813.21H1280.03V821H1278.98V813.21H1276.23ZM1283.75 821H1282.64L1285.84 812.273H1286.93L1290.14 821H1289.03L1286.42 813.653H1286.35L1283.75 821ZM1284.16 817.591H1288.62V818.528H1284.16V817.591ZM1292.56 812.273V821H1291.5V812.273H1292.56ZM1294.67 821V812.273H1297.62C1298.3 812.273 1298.86 812.389 1299.3 812.622C1299.74 812.852 1300.06 813.169 1300.27 813.572C1300.48 813.976 1300.59 814.435 1300.59 814.949C1300.59 815.463 1300.48 815.919 1300.27 816.317C1300.06 816.714 1299.74 817.027 1299.31 817.254C1298.87 817.479 1298.32 817.591 1297.64 817.591H1295.25V816.636H1297.61C1298.07 816.636 1298.45 816.568 1298.73 816.432C1299.02 816.295 1299.23 816.102 1299.35 815.852C1299.48 815.599 1299.55 815.298 1299.55 814.949C1299.55 814.599 1299.48 814.294 1299.35 814.033C1299.22 813.771 1299.01 813.57 1298.73 813.428C1298.44 813.283 1298.06 813.21 1297.59 813.21H1295.73V821H1294.67ZM1298.78 817.08L1300.93 821H1299.7L1297.59 817.08H1298.78ZM1307.12 814.455C1307.07 814.023 1306.86 813.688 1306.5 813.449C1306.14 813.21 1305.69 813.091 1305.16 813.091C1304.78 813.091 1304.44 813.153 1304.15 813.278C1303.86 813.403 1303.64 813.575 1303.47 813.794C1303.32 814.013 1303.24 814.261 1303.24 814.54C1303.24 814.773 1303.29 814.973 1303.4 815.141C1303.52 815.305 1303.66 815.443 1303.84 815.554C1304.01 815.662 1304.2 815.751 1304.39 815.822C1304.58 815.891 1304.76 815.946 1304.92 815.989L1305.81 816.227C1306.04 816.287 1306.29 816.369 1306.57 816.474C1306.85 816.58 1307.12 816.723 1307.37 816.905C1307.63 817.084 1307.85 817.314 1308.01 817.595C1308.18 817.876 1308.26 818.222 1308.26 818.631C1308.26 819.102 1308.14 819.528 1307.89 819.909C1307.65 820.29 1307.29 820.592 1306.82 820.817C1306.35 821.041 1305.78 821.153 1305.11 821.153C1304.49 821.153 1303.94 821.053 1303.49 820.851C1303.03 820.649 1302.68 820.368 1302.41 820.007C1302.16 819.646 1302.01 819.227 1301.97 818.75H1303.07C1303.09 819.08 1303.2 819.352 1303.4 819.568C1303.59 819.781 1303.84 819.94 1304.14 820.045C1304.44 820.148 1304.76 820.199 1305.11 820.199C1305.51 820.199 1305.88 820.134 1306.2 820.003C1306.52 819.869 1306.77 819.685 1306.96 819.449C1307.15 819.21 1307.24 818.932 1307.24 818.614C1307.24 818.324 1307.16 818.088 1307 817.906C1306.84 817.724 1306.62 817.577 1306.36 817.463C1306.1 817.349 1305.81 817.25 1305.5 817.165L1304.43 816.858C1303.75 816.662 1303.21 816.382 1302.81 816.018C1302.41 815.655 1302.21 815.179 1302.21 814.591C1302.21 814.102 1302.35 813.676 1302.61 813.312C1302.88 812.946 1303.23 812.662 1303.68 812.46C1304.14 812.256 1304.64 812.153 1305.2 812.153C1305.76 812.153 1306.26 812.254 1306.7 812.456C1307.13 812.655 1307.48 812.928 1307.74 813.274C1307.99 813.621 1308.13 814.014 1308.15 814.455H1307.12Z" fill="#050404"/>
<path d="M1216.94 812.939C1216.35 813.525 1216.35 814.475 1216.94 815.061L1226.49 824.607C1227.07 825.192 1228.02 825.192 1228.61 824.607C1229.19 824.021 1229.19 823.071 1228.61 822.485L1220.12 814L1228.61 805.515C1229.19 804.929 1229.19 803.979 1228.61 803.393C1228.02 802.808 1227.07 802.808 1226.49 803.393L1216.94 812.939ZM1258.1 814V812.5H1218V814V815.5H1258.1V814Z" fill="black"/>
<path d="M1342.37 742.451C1341.78 743.037 1341.78 743.986 1342.37 744.572L1351.91 754.118C1352.5 754.704 1353.45 754.704 1354.03 754.118C1354.62 753.532 1354.62 752.583 1354.03 751.997L1345.55 743.512L1354.03 735.026C1354.62 734.441 1354.62 733.491 1354.03 732.905C1353.45 732.319 1352.5 732.319 1351.91 732.905L1342.37 742.451ZM1341.7 657.828C1341.11 658.414 1341.11 659.363 1341.7 659.949L1351.24 669.495C1351.83 670.081 1352.78 670.081 1353.37 669.495C1353.95 668.909 1353.95 667.96 1353.37 667.374L1344.88 658.889L1353.37 650.403C1353.95 649.817 1353.95 648.868 1353.37 648.282C1352.78 647.696 1351.83 647.696 1351.24 648.282L1341.7 657.828ZM1383.53 743.512V742.012H1343.43V743.512V745.012H1383.53V743.512ZM1382.86 658.889V657.389H1342.76V658.889V660.389H1382.86V658.889Z" fill="black"/>
<g filter="url(#filter0_d_6_36)">
<rect x="1398.75" y="612.717" width="73.9221" height="87.614" fill="#D9D9D9"/>
<rect x="1399.25" y="613.217" width="72.9221" height="86.614" stroke="black"/>
</g>
<g filter="url(#filter1_d_6_36)">
<rect x="1398.75" y="700.331" width="73.9221" height="87.614" fill="#D9D9D9"/>
<rect x="1399.25" y="700.831" width="72.9221" height="86.614" stroke="black"/>
</g>
<path d="M1423.45 748.638V739.91H1424.5V747.7H1428.56V748.638H1423.45ZM1431.25 739.91V748.638H1430.2V739.91H1431.25ZM1433.37 748.638V739.91H1438.61V740.848H1434.43V743.797H1438.21V744.734H1434.43V748.638H1433.37ZM1439.94 740.848V739.91H1446.48V740.848H1443.74V748.638H1442.68V740.848H1439.94Z" fill="#050404"/>
<path d="M1423.45 663.229V654.501H1424.5V662.291H1428.56V663.229H1423.45ZM1431.25 654.501V663.229H1430.2V654.501H1431.25ZM1433.37 663.229V654.501H1438.61V655.439H1434.43V658.388H1438.21V659.325H1434.43V663.229H1433.37ZM1439.94 655.439V654.501H1446.48V655.439H1443.74V663.229H1442.68V655.439H1439.94Z" fill="#050404"/>
<line x1="1263.5" y1="833.768" x2="1263.5" y2="794" stroke="#04FF10" stroke-width="5"/>
<line x1="1401.67" y1="684.146" x2="1401.54" y2="633.324" stroke="#04FF10" stroke-width="5"/>
<line x1="1401.54" y1="769.555" x2="1401.42" y2="718.733" stroke="#04FF10" stroke-width="5"/>
<rect x="248.029" y="369.345" width="68" height="51" fill="#E9E9E9" stroke="#C6C6C6"/>
<rect x="87.5" y="369.5" width="68" height="51" fill="#E9E9E9" stroke="#C6C6C6"/>
<line x1="303.029" y1="368.845" x2="303.029" y2="420.845" stroke="white"/>
<line x1="302.529" y1="394.345" x2="316.529" y2="394.345" stroke="white"/>
<rect x="569.029" y="361.345" width="68" height="51" fill="#E9E9E9" stroke="#C6C6C6"/>
<line x1="624.029" y1="360.845" x2="624.029" y2="412.845" stroke="white"/>
<line x1="623.529" y1="386.345" x2="637.529" y2="386.345" stroke="white"/>
<rect x="730.029" y="43.3455" width="68" height="51" fill="#E9E9E9" stroke="#C6C6C6"/>
<line x1="785.029" y1="42.8455" x2="785.029" y2="94.8455" stroke="white"/>
<rect x="565.029" y="43.3455" width="68" height="51" fill="#E9E9E9" stroke="#C6C6C6"/>
<line x1="620.029" y1="42.8455" x2="620.029" y2="94.8455" stroke="white"/>
<rect x="406.029" y="43.3455" width="68" height="51" fill="#E9E9E9" stroke="#C6C6C6"/>
<line x1="461.029" y1="42.8455" x2="461.029" y2="94.8455" stroke="white"/>
<rect x="248.029" y="69.3455" width="68" height="26" fill="#E9E9E9" stroke="#C6C6C6"/>
<line x1="303.029" y1="68.8455" x2="303.029" y2="95.8455" stroke="white"/>
<rect x="87.0287" y="69.3455" width="68" height="26" fill="#E9E9E9" stroke="#C6C6C6"/>
<line x1="142.029" y1="68.8455" x2="142.029" y2="95.8455" stroke="white"/>
<rect x="408.029" y="361.345" width="68" height="26" fill="#E9E9E9" stroke="#C6C6C6"/>
<line x1="463.029" y1="360.845" x2="463.029" y2="387.845" stroke="white"/>
<rect x="408.029" y="407.345" width="68" height="26" fill="#E9E9E9" stroke="#C6C6C6"/>
<line x1="463.029" y1="406.845" x2="463.029" y2="433.845" stroke="white"/>
<rect x="730.029" y="361.345" width="68" height="26" fill="#E9E9E9" stroke="#C6C6C6"/>
<line x1="785.029" y1="360.845" x2="785.029" y2="387.845" stroke="white"/>
<rect x="730.029" y="407.345" width="68" height="26" fill="#E9E9E9" stroke="#C6C6C6"/>
<line x1="785.029" y1="406.845" x2="785.029" y2="433.845" stroke="white"/>
<rect x="730.029" y="361.345" width="68" height="26" fill="#E9E9E9" stroke="#C6C6C6"/>
<line x1="785.029" y1="360.845" x2="785.029" y2="387.845" stroke="white"/>
<rect x="730.029" y="407.345" width="68" height="26" fill="#E9E9E9" stroke="#C6C6C6"/>
<line x1="785.029" y1="406.845" x2="785.029" y2="433.845" stroke="white"/>
<rect x="908.029" y="361.345" width="68" height="26" fill="#E9E9E9" stroke="#C6C6C6"/>
<line x1="963.029" y1="360.845" x2="963.029" y2="387.845" stroke="white"/>
<rect x="908.029" y="407.345" width="68" height="26" fill="#E9E9E9" stroke="#C6C6C6"/>
<line x1="963.029" y1="406.845" x2="963.029" y2="433.845" stroke="white"/>
<rect x="983.5" y="1.5" width="176.239" height="185.759" fill="white" stroke="black" stroke-width="3"/>
<rect x="983.5" y="1.5" width="176.239" height="185.759" fill="white" stroke="black" stroke-width="3"/>
<rect x="983.5" y="1.5" width="176.239" height="185.759" fill="white" stroke="black" stroke-width="3"/>
<rect x="1068.08" y="1.5" width="91.6637" height="64.856" fill="white" stroke="black" stroke-width="3"/>
<rect x="1087.34" y="94.4248" width="68" height="26" fill="#E9E9E9" stroke="#C6C6C6"/>
<line x1="1142.34" y1="93.9248" x2="1142.34" y2="120.925" stroke="white"/>
<rect x="1087.34" y="140.425" width="68" height="26" fill="#E9E9E9" stroke="#C6C6C6"/>
<line x1="1142.34" y1="139.925" x2="1142.34" y2="166.925" stroke="white"/>
<rect x="1221.5" y="380.5" width="176.239" height="185.759" fill="white" stroke="black" stroke-width="3"/>
<rect x="1221.5" y="380.5" width="176.239" height="185.759" fill="white" stroke="black" stroke-width="3"/>
<rect x="1221.5" y="380.5" width="176.239" height="185.759" fill="white" stroke="black" stroke-width="3"/>
<rect x="1306.08" y="380.5" width="91.6637" height="64.856" fill="white" stroke="black" stroke-width="3"/>
<rect x="1325.34" y="473.425" width="68" height="26" fill="#E9E9E9" stroke="#C6C6C6"/>
<line x1="1380.34" y1="472.925" x2="1380.34" y2="499.925" stroke="white"/>
<rect x="1325.34" y="519.425" width="68" height="26" fill="#E9E9E9" stroke="#C6C6C6"/>
<line x1="1380.34" y1="518.925" x2="1380.34" y2="545.925" stroke="white"/>
<rect x="804.191" y="1.5" width="176.239" height="185.759" fill="white" stroke="black" stroke-width="3"/>
<rect x="888.766" y="122.403" width="91.6636" height="64.856" fill="white" stroke="black" stroke-width="3"/>
<rect x="908.029" y="43.3455" width="68" height="51" fill="#E9E9E9" stroke="#C6C6C6"/>
<rect x="1221.5" y="2.5" width="176.239" height="185.759" fill="white" stroke="black" stroke-width="3"/>
<rect x="1306.07" y="123.403" width="91.6636" height="64.856" fill="white" stroke="black" stroke-width="3"/>
<rect x="1325.34" y="44.3455" width="68" height="51" fill="#E9E9E9" stroke="#C6C6C6"/>
<rect x="1221.5" y="191.5" width="176.239" height="185.759" fill="white" stroke="black" stroke-width="3"/>
<rect x="1306.07" y="312.403" width="91.6636" height="64.856" fill="white" stroke="black" stroke-width="3"/>
<rect x="1325.34" y="233.345" width="68" height="51" fill="#E9E9E9" stroke="#C6C6C6"/>
<rect x="1158.74" y="898.259" width="176.239" height="185.759" transform="rotate(-180 1158.74 898.259)" fill="white" stroke="black" stroke-width="3"/>
<rect x="1074.16" y="777.356" width="91.6636" height="64.856" transform="rotate(-180 1074.16 777.356)" fill="white" stroke="black" stroke-width="3"/>
<rect x="1054.9" y="856.414" width="68" height="51" transform="rotate(-180 1054.9 856.414)" fill="#E9E9E9" stroke="#C6C6C6"/>
<line x1="963.029" y1="42.8455" x2="963.029" y2="94.8455" stroke="white"/>
<path d="M1.52869 455.845H980.529V664.845H1.52869V455.845Z" fill="#B6C3A7"/>
<path d="M418.114 567.845V554.755H422.537C423.564 554.755 424.404 554.94 425.056 555.311C425.712 555.677 426.198 556.174 426.513 556.8C426.829 557.426 426.986 558.125 426.986 558.897C426.986 559.668 426.829 560.369 426.513 561C426.202 561.63 425.721 562.133 425.069 562.508C424.417 562.879 423.581 563.064 422.563 563.064H419.392V561.658H422.512C423.215 561.658 423.78 561.537 424.206 561.294C424.632 561.051 424.941 560.723 425.133 560.309C425.329 559.892 425.427 559.421 425.427 558.897C425.427 558.372 425.329 557.904 425.133 557.49C424.941 557.077 424.63 556.753 424.199 556.519C423.769 556.28 423.198 556.161 422.486 556.161H419.699V567.845H418.114ZM428.741 567.845H427.079L431.886 554.755H433.522L438.329 567.845H436.667L432.755 556.826H432.653L428.741 567.845ZM429.354 562.732H436.053V564.138H429.354V562.732ZM440.368 567.845V554.755H444.791C445.814 554.755 446.653 554.929 447.31 555.279C447.966 555.624 448.452 556.099 448.767 556.704C449.082 557.309 449.24 557.997 449.24 558.769C449.24 559.54 449.082 560.224 448.767 560.821C448.452 561.417 447.968 561.886 447.316 562.227C446.664 562.563 445.831 562.732 444.817 562.732H441.237V561.3H444.766C445.465 561.3 446.027 561.198 446.453 560.993C446.884 560.789 447.195 560.499 447.386 560.124C447.582 559.745 447.68 559.293 447.68 558.769C447.68 558.245 447.582 557.787 447.386 557.394C447.19 557.002 446.877 556.7 446.447 556.487C446.016 556.269 445.447 556.161 444.74 556.161H441.953V567.845H440.368ZM446.53 561.965L449.751 567.845H447.911L444.74 561.965H446.53ZM451.882 567.845V554.755H453.467V561.249H453.62L459.501 554.755H461.572L456.075 560.661L461.572 567.845H459.654L455.103 561.76L453.467 563.601V567.845H451.882ZM465.209 554.755V567.845H463.624V554.755H465.209ZM478.768 554.755V567.845H477.234L470.101 557.567H469.973V567.845H468.387V554.755H469.922L477.081 565.059H477.208V554.755H478.768ZM490.889 558.845C490.748 558.415 490.563 558.029 490.333 557.688C490.107 557.343 489.837 557.049 489.521 556.806C489.21 556.563 488.856 556.378 488.46 556.25C488.064 556.122 487.629 556.059 487.156 556.059C486.381 556.059 485.675 556.259 485.04 556.659C484.405 557.06 483.9 557.65 483.525 558.43C483.15 559.21 482.963 560.166 482.963 561.3C482.963 562.434 483.153 563.39 483.532 564.17C483.911 564.95 484.425 565.54 485.072 565.941C485.72 566.341 486.449 566.541 487.258 566.541C488.008 566.541 488.669 566.382 489.24 566.062C489.815 565.738 490.263 565.282 490.582 564.694C490.906 564.102 491.068 563.405 491.068 562.604L491.554 562.706H487.616V561.3H492.602V562.706C492.602 563.784 492.372 564.722 491.912 565.519C491.456 566.316 490.825 566.934 490.02 567.372C489.219 567.807 488.298 568.024 487.258 568.024C486.099 568.024 485.081 567.752 484.203 567.206C483.329 566.661 482.648 565.885 482.158 564.88C481.672 563.874 481.429 562.681 481.429 561.3C481.429 560.264 481.567 559.333 481.844 558.507C482.126 557.676 482.522 556.968 483.033 556.385C483.545 555.801 484.15 555.353 484.849 555.042C485.547 554.731 486.317 554.576 487.156 554.576C487.846 554.576 488.49 554.68 489.087 554.889C489.687 555.093 490.222 555.385 490.691 555.764C491.164 556.139 491.558 556.589 491.873 557.113C492.189 557.633 492.406 558.211 492.525 558.845H490.889ZM500.917 567.845H499.255L504.061 554.755H505.698L510.505 567.845H508.843L504.931 556.826H504.829L500.917 567.845ZM501.53 562.732H508.229V564.138H501.53V562.732ZM512.544 567.845V554.755H516.967C517.99 554.755 518.829 554.929 519.485 555.279C520.142 555.624 520.628 556.099 520.943 556.704C521.258 557.309 521.416 557.997 521.416 558.769C521.416 559.54 521.258 560.224 520.943 560.821C520.628 561.417 520.144 561.886 519.492 562.227C518.84 562.563 518.007 562.732 516.993 562.732H513.413V561.3H516.941C517.64 561.3 518.203 561.198 518.629 560.993C519.059 560.789 519.37 560.499 519.562 560.124C519.758 559.745 519.856 559.293 519.856 558.769C519.856 558.245 519.758 557.787 519.562 557.394C519.366 557.002 519.053 556.7 518.623 556.487C518.192 556.269 517.623 556.161 516.916 556.161H514.129V567.845H512.544ZM518.706 561.965L521.927 567.845H520.086L516.916 561.965H518.706ZM524.057 567.845V554.755H531.958V556.161H525.643V560.584H531.549V561.99H525.643V566.439H532.06V567.845H524.057ZM535.352 567.845H533.69L538.497 554.755H540.133L544.94 567.845H543.278L539.366 556.826H539.264L535.352 567.845ZM535.966 562.732H542.665V564.138H535.966V562.732Z" fill="#050404"/>
<line x1="1264" y1="838.5" x2="1366" y2="838.5" stroke="black"/>
<line x1="1365.5" y1="839" x2="1365.5" y2="872" stroke="black"/>
<line x1="1366" y1="872.5" x2="1290" y2="872.5" stroke="black"/>
<line x1="1290.5" y1="872" x2="1290.5" y2="867" stroke="black"/>
<line x1="1290" y1="866.5" x2="1357" y2="866.5" stroke="black"/>
<line x1="1356.5" y1="867" x2="1356.5" y2="872" stroke="black"/>
<rect x="1312" y="788" width="7" height="50" fill="#D9D9D9"/>
<rect x="1323" y="788" width="7" height="50" fill="#D9D9D9"/>
<rect x="1334" y="788" width="7" height="50" fill="#D9D9D9"/>
<rect x="1333" y="788" width="7" height="50" fill="#D9D9D9"/>
<rect x="1344" y="788" width="7" height="50" fill="#D9D9D9"/>
<rect x="1355" y="788" width="7" height="50" fill="#D9D9D9"/>
<rect x="1366" y="788" width="7" height="50" fill="#D9D9D9"/>
<rect x="1359" y="873" width="7" height="26" fill="#D9D9D9"/>
<rect x="1348" y="873" width="7" height="26" fill="#D9D9D9"/>
<rect x="1337" y="873" width="7" height="26" fill="#D9D9D9"/>
<rect x="1326" y="873" width="7" height="26" fill="#D9D9D9"/>
<rect x="1315" y="873" width="7" height="26" fill="#D9D9D9"/>
<rect x="1304" y="873" width="7" height="26" fill="#D9D9D9"/>
<rect x="1293" y="873" width="7" height="26" fill="#D9D9D9"/>
<rect x="1264" y="839" width="29" height="27" fill="#D9D9D9"/>
<rect x="1297" y="839" width="7" height="27" fill="#D9D9D9"/>
<rect x="1308" y="839" width="7" height="27" fill="#D9D9D9"/>
<rect x="1319" y="839" width="7" height="27" fill="#D9D9D9"/>
<rect x="1330" y="839" width="7" height="27" fill="#D9D9D9"/>
<rect x="1341" y="839" width="7" height="27" fill="#D9D9D9"/>
<rect x="1352" y="839" width="7" height="27" fill="#D9D9D9"/>
<rect x="1366" y="845" width="57" height="33" transform="rotate(-90 1366 845)" fill="#D9D9D9"/>
<rect x="1366.05" y="856.246" width="7" height="32.6662" transform="rotate(-90.4325 1366.05 856.246)" fill="#D9D9D9"/>
<rect x="1366.05" y="867.246" width="7" height="32.6662" transform="rotate(-90.4325 1366.05 867.246)" fill="#D9D9D9"/>
<rect x="1264" y="873" width="7" height="26" transform="rotate(-90 1264 873)" fill="#D9D9D9"/>
<rect x="1357.04" y="871.452" width="5.39278" height="7.9041" transform="rotate(-90.4325 1357.04 871.452)" fill="#D9D9D9"/>
<rect x="1366" y="899.034" width="28" height="33" transform="rotate(-90 1366 899.034)" fill="#D9D9D9"/>
<line x1="1159.5" y1="882.768" x2="1159.5" y2="843" stroke="#04FF10" stroke-width="5"/>
<line x1="1221.5" y1="433.768" x2="1221.5" y2="394" stroke="#04FF10" stroke-width="5"/>
<line x1="1221.5" y1="360.768" x2="1221.5" y2="321" stroke="#04FF10" stroke-width="5"/>
<line x1="1221.5" y1="161.768" x2="1221.5" y2="122" stroke="#04FF10" stroke-width="5"/>
<line x1="1035.77" y1="186.5" x2="996" y2="186.5" stroke="#04FF10" stroke-width="5"/>
<line x1="850.768" y1="186.5" x2="811" y2="186.5" stroke="#04FF10" stroke-width="5"/>
<line x1="689.768" y1="186.5" x2="650" y2="186.5" stroke="#04FF10" stroke-width="5"/>
<line x1="529.768" y1="186.5" x2="490" y2="186.5" stroke="#04FF10" stroke-width="5"/>
<line x1="369.768" y1="186.5" x2="330" y2="186.5" stroke="#04FF10" stroke-width="5"/>
<line x1="209.768" y1="186.5" x2="170" y2="186.5" stroke="#04FF10" stroke-width="5"/>
<line x1="52.7676" y1="186.5" x2="13.0001" y2="186.5" stroke="#04FF10" stroke-width="5"/>
<line x1="52.7676" y1="269.5" x2="13.0001" y2="269.5" stroke="#04FF10" stroke-width="5"/>
<line x1="209.768" y1="269.5" x2="170" y2="269.5" stroke="#04FF10" stroke-width="5"/>
<line x1="369.768" y1="269.5" x2="330" y2="269.5" stroke="#04FF10" stroke-width="5"/>
<line x1="529.768" y1="267.5" x2="490" y2="267.5" stroke="#04FF10" stroke-width="5"/>
<line x1="689.768" y1="267.5" x2="650" y2="267.5" stroke="#04FF10" stroke-width="5"/>
<line x1="848.768" y1="267.5" x2="809" y2="267.5" stroke="#04FF10" stroke-width="5"/>
</g>
<defs>
<filter id="filter0_d_6_36" x="1394.75" y="612.717" width="81.9221" height="95.6139" filterUnits="userSpaceOnUse" color-interpolation-filters="sRGB">
<feFlood flood-opacity="0" result="BackgroundImageFix"/>
<feColorMatrix in="SourceAlpha" type="matrix" values="0 0 0 0 0 0 0 0 0 0 0 0 0 0 0 0 0 0 127 0" result="hardAlpha"/>
<feOffset dy="4"/>
<feGaussianBlur stdDeviation="2"/>
<feComposite in2="hardAlpha" operator="out"/>
<feColorMatrix type="matrix" values="0 0 0 0 0 0 0 0 0 0 0 0 0 0 0 0 0 0 0.25 0"/>
<feBlend mode="normal" in2="BackgroundImageFix" result="effect1_dropShadow_6_36"/>
<feBlend mode="normal" in="SourceGraphic" in2="effect1_dropShadow_6_36" result="shape"/>
</filter>
<filter id="filter1_d_6_36" x="1394.75" y="700.331" width="81.9221" height="95.614" filterUnits="userSpaceOnUse" color-interpolation-filters="sRGB">
<feFlood flood-opacity="0" result="BackgroundImageFix"/>
<feColorMatrix in="SourceAlpha" type="matrix" values="0 0 0 0 0 0 0 0 0 0 0 0 0 0 0 0 0 0 127 0" result="hardAlpha"/>
<feOffset dy="4"/>
<feGaussianBlur stdDeviation="2"/>
<feComposite in2="hardAlpha" operator="out"/>
<feColorMatrix type="matrix" values="0 0 0 0 0 0 0 0 0 0 0 0 0 0 0 0 0 0 0.25 0"/>
<feBlend mode="normal" in2="BackgroundImageFix" result="effect1_dropShadow_6_36"/>
<feBlend mode="normal" in="SourceGraphic" in2="effect1_dropShadow_6_36" result="shape"/>
</filter>
<clipPath id="clip0_6_36">
<rect width="1473" height="900" fill="white"/>
</clipPath>
</defs>
</svg>
